<?xml version="1.0" encoding="utf-8"?>
<!-- Generator: Adobe Illustrator 23.0.1, SVG Export Plug-In . SVG Version: 6.00 Build 0)  -->
<svg version="1.1" id="Layer_1" xmlns="http://www.w3.org/2000/svg" xmlns:xlink="http://www.w3.org/1999/xlink" x="0px" y="0px"
	 viewBox="0 0 300 300" style="enable-background:new 0 0 300 300;" xml:space="preserve">
<style type="text/css">
	.st0{fill:#8DD7F7;}
	.st1{fill:#FFFFFF;}
	.st2{fill:#231F20;}
	.st3{fill:#ED2924;}
	.st4{fill:#00ADEE;}
</style>
<g>
	<path class="st0" d="M274.27,85.36c-2.09,0.05-5.59,0.35-7.16,1.84c-1.13-0.6-2.26-0.82-3.37-0.82c-0.57,0-1.12,0.06-1.67,0.15
		l-1.01-0.18c-1.33,0.05-2.06,0.6-3.06,1.17l-0.42,0.1l-1.87,0.08c-0.64-0.21-1.32-0.3-2.03-0.3c-0.19,0-0.4,0-0.6,0.02l-2.24-0.03
		l-2.06,0.67c-0.57-0.39-1.13-0.53-1.69-0.53c-0.87,0-1.74,0.35-2.64,0.73l-1.47,0.03l-1.89,0.77c-1.16-0.06-2.46-0.41-3.73-0.41
		c-0.17,0-0.34,0-0.51,0.02c-1.92,0.16-3.66,0.86-5.22,0.86l-0.3-0.02l-1.49-0.28l0.17,0.08l-0.63,0.01
		c-1.81,0.31-2.91,1.68-4.77,1.68c-0.12,0-0.25-0.01-0.37-0.02c-1.34-0.13-1.97-1.14-3.24-1.14c-0.16,0-0.33,0.02-0.52,0.05
		c-1,0.03-0.77,1.1-1.73,1.17c-0.57-0.42-1.22-0.58-1.9-0.58c-1.39,0-2.88,0.69-3.94,1.3c-0.61-0.57-1.25-0.77-1.9-0.77
		c-1.46,0-2.95,1.02-4.17,1.1c-0.03,0-0.07,0-0.1,0c-0.48,0-1-0.19-1.5-0.37c-0.51-0.19-1.01-0.38-1.49-0.38c-0.01,0-0.02,0-0.03,0
		c-1.28,0.03-2.47,0.85-3.78,0.95c-0.04,0-0.08,0-0.14,0c-0.76,0-1.56-0.4-2.34-0.4c-1.81,0.02-3.36,1.06-5.17,1.06
		c-0.01,0-0.02,0-0.03,0c-0.01,0-0.03,0-0.03,0c-1.77,0-2.89-0.67-4.52-0.82c-1.06,0.41-1.81,1.1-2.92,1.48
		c-0.65-0.55-1.26-0.76-1.83-0.76c-1.7,0-3.08,1.82-4.35,2.11c-0.22,0.04-0.45,0.07-0.68,0.07c-0.68,0-1.4-0.17-2.15-0.34
		c-0.75-0.16-1.53-0.33-2.29-0.33c-0.35,0-0.69,0.03-1.03,0.12c-0.88,0.23-1.22,0.9-2.34,1.22c-0.59-0.62-1.37-0.9-2.17-0.9
		c-0.96,0-1.95,0.41-2.69,1.11c-0.65-0.47-1.32-0.65-2-0.65c-1.88,0-3.92,1.31-6.08,1.36c-0.04,0-0.08,0-0.13,0
		c-0.93,0-1.91-0.23-2.87-0.46c-0.95-0.24-1.89-0.46-2.72-0.46c-0.23,0-0.46,0.02-0.67,0.06c-1.16,0.24-1.82,1.43-2.92,1.48
		c-0.04,0-0.08,0-0.12,0c-0.52,0-1.06-0.17-1.6-0.34c-0.54-0.17-1.08-0.34-1.57-0.34c-0.61,0-1.16,0.26-1.56,1.11
		c-0.75-0.75-1.49-1.02-2.19-1.02c-1.68,0-3.22,1.53-4.67,1.62c-0.03,0-0.05,0-0.08,0c-0.41,0-0.84-0.19-1.28-0.39
		c-0.44-0.2-0.88-0.4-1.3-0.4c-0.03,0-0.04,0-0.07,0c-1.5,0.08-2.97,1.64-4.72,1.64h-0.02c-0.87-0.01-1.73-0.79-2.62-0.79
		c-0.03,0-0.06,0.01-0.09,0.01c-0.95,0.05-1.95,0.79-2.98,0.87c-0.05,0-0.1,0-0.15,0c-0.41,0-0.84-0.09-1.27-0.19
		c-0.42-0.09-0.84-0.19-1.23-0.19c-0.08,0-0.15,0.01-0.23,0.02c-1.15,0.14-2.05,1.06-3.16,1.09c-0.03,0-0.04,0-0.07,0
		c-0.55,0-1.11-0.19-1.65-0.37c-0.53-0.19-1.06-0.36-1.52-0.36c-0.09,0-0.19,0.01-0.29,0.03c-0.93,0.19-1.54,1.65-2.47,1.65
		c-0.01,0-0.03,0-0.03,0c-0.58-0.42-1.54-0.6-2.58-0.6c-1.64,0-3.47,0.46-4.29,1.2c-0.97-0.92-2.06-1.44-3.13-1.44
		c-1.04,0-2.06,0.49-2.96,1.56c-0.56-0.62-1.12-0.85-1.66-0.85c-1.39,0-2.74,1.43-3.98,1.55c-0.05,0-0.1,0.01-0.15,0.01
		c-0.83,0-1.68-0.67-2.56-0.79c-0.36-0.05-0.71-0.07-1.04-0.07c-2.14,0-3.84,0.87-5.94,1.7c-0.69-0.55-1.39-0.73-2.14-0.73
		c-1.27,0-2.67,0.53-4.38,0.68c-0.13,0.01-0.25,0.02-0.39,0.02c-0.39,0-0.79-0.05-1.17-0.09c-0.38-0.04-0.75-0.09-1.08-0.09
		c-0.15,0-0.29,0.01-0.42,0.03c-1.22,0.19-2.11,1.19-3.14,1.29c-0.07,0.01-0.14,0.01-0.21,0.01c-0.52,0-1.04-0.19-1.53-0.37
		c-0.51-0.19-0.99-0.37-1.47-0.37c-0.03,0-0.08,0.01-0.11,0.01c-1.11,0.07-2.04,1.08-3.34,1.31c-0.15,0.03-0.3,0.03-0.46,0.03
		c-0.54,0-1.11-0.13-1.69-0.25c-0.57-0.13-1.13-0.25-1.65-0.25c-0.11,0-0.21,0.01-0.31,0.02c-0.9,0.1-1.8,0.95-2.75,1.06
		c-0.09,0.01-0.19,0.01-0.28,0.01c-0.5,0-1.03-0.13-1.56-0.25c-0.54-0.13-1.09-0.25-1.62-0.25c-0.08,0-0.16,0-0.24,0.01
		c-1.24,0.1-2.42,0.85-3.58,0.92c-0.07,0-0.14,0.01-0.21,0.01c-0.55,0-1.1-0.13-1.64-0.25c-0.55-0.13-1.09-0.25-1.62-0.25
		c-0.08,0-0.16,0-0.24,0.01c-1.27,0.1-2.36,0.86-3.77,1.15c-0.61,0.12-1.14,0.17-1.63,0.17c-1.56,0-2.64-0.47-3.89-0.51
		c-0.08,0-0.16,0-0.24,0c-2.31,0-4.45,0.91-6.51,1.82c-1-0.67-2.59-1.01-4.27-1.01c-1.11,0-2.26,0.15-3.3,0.45
		c-1.5,2.54-1.23,6.81,1.14,8.45c-1.69,1.77-1.1,4.75,0.55,6.26c-1.46,2.26-1.17,5.3,0.64,7.27c-1.93,1.71,0.01,4.48,1.11,5.8
		c-1.8,3.23-0.11,6.94,0.43,9.53c0.52,2.45-0.56,4.46-0.21,6.93c0.16,1.16,1,2.17,1.11,3.36c0.1,0.99-0.39,2.09-0.34,3.08
		c0.08,1.56,1.12,2.91,1.17,4.17c0.04,0.9-0.63,1.81-0.57,2.69c0.08,1.33,1.2,2.77,1.18,4.17c-0.03,1.31-0.85,2.24-0.73,3.32
		c0.13,1.11,1.23,2.04,1.31,3.34c0.06,1.06-0.8,2.2-0.71,3.51c0.16,2.44,0.9,4.7,0.62,7.07c0.82,0.7,1.06,1.47,1.04,2.32
		c0,0-0.6,1.99-0.49,3.01c-0.12,0.69-0.18,0.85-0.09,1.61c0.11,0.95,0.75,0.95,0.63,2.73c-0.18,1.02,0.99,1.75,0.72,3.13
		c-1.83,2.11-0.15,4.75,1,6.83c-1.8,1.77-0.95,4.72,0.57,6.46c-1.47,2.33-0.54,5.42,0.28,7.91c0.59,0.26,1.22,0.38,1.85,0.38h0.08
		c2.09-0.01,4.28-1.17,5.66-2.06c1.12,0.6,2.26,0.81,3.36,0.81c2.22,0,4.36-0.85,6.17-1.24c0.61-0.13,1.2-0.18,1.77-0.18
		c0.84,0,1.66,0.11,2.42,0.22c0.76,0.1,1.47,0.21,2.15,0.21c0.27,0,0.54-0.02,0.8-0.06c1.11-0.18,2.04-0.99,3.16-1.09
		c0.09-0.01,0.19-0.02,0.29-0.02c0.46,0,0.93,0.08,1.41,0.17c0.48,0.08,0.96,0.17,1.44,0.17c0.12,0,0.24-0.01,0.35-0.02
		c1.33-0.13,2.55-1.1,3.77-1.15c0.02,0,0.03,0,0.05,0c0.45,0,0.87,0.14,1.29,0.3c0.41,0.14,0.83,0.29,1.25,0.29c0.03,0,0.07,0,0.1,0
		c1.16-0.07,2.58-1.15,3.97-1.17c1.16,0,2.2,0.73,3.27,0.73c0.08,0,0.17-0.01,0.25-0.02c1.17-0.13,2.17-1.24,3.34-1.31
		c0.03,0,0.07,0,0.1,0c0.52,0,1.06,0.18,1.58,0.36c0.52,0.19,1.04,0.36,1.55,0.36c0.03,0,0.06,0,0.09,0c0.93-0.03,1.99-0.58,3-0.67
		c0.16-0.01,0.31-0.02,0.46-0.02c0.47,0,0.94,0.05,1.38,0.09c0.43,0.05,0.85,0.09,1.26,0.09c0.33,0,0.65-0.03,0.97-0.12
		c0.77-0.2,1.5-1.12,2.33-1.22c0.06-0.01,0.13-0.01,0.19-0.01c0.88,0,2.08,0.62,3.12,0.73c0.37,0.03,0.73,0.05,1.05,0.05
		c2.17,0,3.35-0.78,5.33-1.63c0.82,0.52,1.83,0.83,2.83,0.83c1.05,0,2.08-0.34,2.85-1.12c0.76,0.79,1.58,1.12,2.38,1.12
		c1.28,0,2.52-0.84,3.44-2.04c0.65,0.41,1.59,0.58,2.59,0.58c1.72,0,3.64-0.51,4.68-1.22c0.65,0.79,1.29,1.06,1.93,1.06
		c1.24,0,2.52-0.99,3.95-1.17c0.08-0.01,0.17-0.02,0.25-0.02c0.47,0,0.94,0.14,1.42,0.28c0.47,0.14,0.95,0.27,1.43,0.27
		c0.07,0,0.14-0.01,0.2-0.01c1.08-0.08,2.08-0.84,3.18-0.89c0.03,0,0.05,0,0.08,0c0.39,0,0.8,0.09,1.21,0.19
		c0.41,0.09,0.79,0.19,1.15,0.19c0.08,0,0.17-0.01,0.24-0.02c0.96-0.14,1.78-1.13,2.74-1.25c0.12-0.02,0.24-0.03,0.36-0.03
		c0.66,0,1.35,0.22,2.03,0.43c0.68,0.21,1.35,0.42,1.98,0.42c0.13,0,0.25-0.01,0.38-0.03c0.85-0.14,1.66-1.17,2.53-1.24
		c0.03,0,0.07,0,0.1,0c1.02,0,2.06,1.14,3.06,1.15c0.02,0,0.03,0,0.05,0c1.17,0,1.75-0.89,2.89-1.28c0.92-0.31,2.08-0.48,3.12-0.48
		c0.03,0,0.06,0,0.08,0c2.17,0.01,3.82,0.71,5.68,0.71c0.35,0,0.72-0.03,1.09-0.08c0.73-0.88,1.94-1.22,3.18-1.22
		c1.11,0,2.25,0.27,3.08,0.67c0.61-0.62,1.18-0.81,1.77-0.81c0.43,0,0.86,0.1,1.33,0.2c0.46,0.1,0.93,0.2,1.44,0.2
		c0.17,0,0.34-0.01,0.52-0.03c1.12-0.15,1.7-1.17,2.94-1.28c0.04-0.01,0.09-0.01,0.14-0.01c0.84,0,1.75,0.57,2.56,0.59
		c0.02,0,0.03,0,0.04,0c1.39,0,2.54-0.81,3.94-0.96c0.12-0.02,0.24-0.02,0.36-0.02c0.36,0,0.73,0.04,1.11,0.09
		c0.38,0.04,0.76,0.09,1.15,0.09c0.21,0,0.43-0.02,0.64-0.05c0.77-0.12,1.44-0.54,2.18-0.59c0.1-0.01,0.2-0.01,0.3-0.01
		c0.48,0,0.96,0.08,1.44,0.16c0.47,0.08,0.95,0.17,1.42,0.17c0.11,0,0.22-0.01,0.33-0.02c1.9-0.16,3.51-1.58,5.35-1.69
		c0.04-0.01,0.08-0.01,0.13-0.01c0.9,0,1.86,0.57,2.77,0.57c0.01,0,0.02,0,0.02,0c1.29,0,2.59-0.67,3.99-0.76
		c1.73-0.09,3.3-0.19,5.25-0.46c0.29-0.04,0.54-0.05,0.77-0.05c0.57,0,0.99,0.09,1.38,0.19c0.39,0.1,0.75,0.19,1.18,0.19
		c0.19,0,0.39-0.02,0.61-0.06c0.91-0.17,1.65-0.92,2.56-1.04c0.14-0.02,0.27-0.03,0.41-0.03c0.46,0,0.93,0.08,1.4,0.17
		c0.46,0.09,0.94,0.18,1.39,0.18c0.17,0,0.34-0.02,0.51-0.04c0.78-0.12,1.54-0.95,2.35-1.01c0.04-0.01,0.08-0.01,0.12-0.01
		c0.44,0,0.69,0.21,0.95,0.42c0.25,0.21,0.52,0.42,0.95,0.42c0.05,0,0.1,0,0.16-0.01c0.88-0.08,3.34-1.02,4.18-1.18
		c0.19-0.03,0.35-0.05,0.5-0.05c0.34,0,0.62,0.07,0.94,0.14c0.31,0.07,0.65,0.14,1.13,0.14c0.17,0,0.35-0.01,0.56-0.03
		c0,0,0.54,0.17,1.37,0.17c0.56,0,1.24-0.08,1.98-0.32c0.67-0.23,1.09-0.3,1.43-0.3c0.6,0,0.93,0.23,1.84,0.27l0.48-0.08
		c1.01-0.25,2.19-1.03,3.31-1.22c0.15-0.03,0.3-0.04,0.46-0.04c0.54,0,1.12,0.14,1.68,0.26c0.57,0.13,1.13,0.25,1.66,0.25
		c0.1,0,0.21-0.01,0.31-0.02c0.97-0.12,1.93-1,2.96-1.08c0.04,0,0.08-0.01,0.12-0.01c0.45,0,0.93,0.14,1.41,0.28
		c0.48,0.14,0.97,0.28,1.45,0.28c0.04,0,0.08,0,0.12,0c1.32-0.06,2.64-0.88,3.99-0.96c0.08-0.01,0.14-0.01,0.22-0.01
		c0.59,0,1.16,0.13,1.71,0.25c0.54,0.12,1.08,0.24,1.62,0.24c0.12,0,0.24-0.01,0.35-0.02c1.2-0.12,2.21-0.85,3.56-1.12
		c0.59-0.12,1.12-0.17,1.6-0.17c1.55,0,2.66,0.46,3.92,0.5c0.08,0,0.16,0,0.25,0c2.28,0,4.47-0.9,6.52-1.82
		c1,0.67,2.59,1.01,4.28,1.01c1.11,0,2.26-0.15,3.29-0.45c0.23-0.68,0.35-1.63,0.37-2.68v-0.53c-0.03-2.1-0.52-4.38-1.52-5.24
		c1.69-1.78,1.11-4.76-0.55-6.27c1.4-2.4,1.38-5.56-0.63-7.26c0.79-1.48,0.24-3.21-0.59-4.43c1.87-3.07,0.13-6.77-0.41-9.32
		c-0.52-2.42,0.53-4.5,0.2-6.94c-0.16-1.12-1-2.21-1.11-3.36c-0.09-0.98,0.4-2.05,0.34-3.07c-0.08-1.49-1.13-2.86-1.17-4.17
		c-0.04-0.97,0.64-1.93,0.56-2.9c-0.12-1.37-1.19-2.58-1.16-3.97c0.02-1.27,0.88-2.31,0.71-3.52c-0.17-1.06-1.24-2.03-1.29-3.14
		c-0.06-1.06,0.76-2.14,0.74-3.12c-0.02-0.98-0.61-2.04-0.69-3.2c-0.11-1.49,0.35-2.95,0.05-4.07c-0.21-0.77-1.12-1.49-1.22-2.33
		c-0.18-1.48,0.9-3.2,0.79-4.96c-0.06-0.83-0.22-1.46-0.44-2.01c0.39-1.68-1.01-3.45-0.98-5.08c0.03-0.93,0.79-1.72,0.79-2.72
		c-0.02-1.49-0.64-1.94-1.12-3.36c1.07-1.66,0.45-4.64-0.54-6.26c1.87-1.23,0.62-3.26,0.38-4.92
		C275.25,88.37,276.29,85.7,274.27,85.36"/>
	<polygon class="st0" points="239.19,202.79 238.71,202.87 239.17,202.83 	"/>
</g>
<g>
	<path class="st1" d="M234.01,198.43c1.01-0.26,2.19-1.03,3.31-1.22c1.28-0.22,2.86,0.59,4.1,0.46c0.98-0.12,1.93-1,2.96-1.08
		c0.97-0.07,2.05,0.59,3.1,0.55c1.32-0.06,2.64-0.88,3.98-0.96c1.42-0.08,2.63,0.61,3.91,0.47c1.19-0.13,2.21-0.85,3.56-1.12
		c2.47-0.5,3.87,0.28,5.52,0.33c2.37,0.07,4.64-0.87,6.76-1.82c1.66,1.11,4.97,1.31,7.58,0.56c0.73-2.11,0.46-7.08-1.14-8.45
		c1.69-1.77,1.1-4.75-0.55-6.26c1.4-2.4,1.39-5.57-0.63-7.26c0.79-1.49,0.24-3.21-0.59-4.43c1.87-3.07,0.13-6.77-0.41-9.32
		c-0.51-2.43,0.55-4.5,0.21-6.94c-0.16-1.13-1.01-2.22-1.11-3.36c-0.09-0.98,0.4-2.05,0.34-3.07c-0.08-1.49-1.12-2.87-1.18-4.17
		c-0.03-0.98,0.65-1.93,0.57-2.9c-0.13-1.37-1.19-2.58-1.17-3.97c0.03-1.27,0.9-2.31,0.71-3.52c-0.15-1.07-1.23-2.03-1.29-3.14
		c-0.06-1.06,0.77-2.14,0.75-3.12c-0.03-0.99-0.61-2.04-0.69-3.2c-0.11-1.49,0.35-2.94,0.05-4.07c-0.2-0.77-1.12-1.49-1.22-2.33
		c-0.17-1.48,0.91-3.21,0.79-4.96c-0.06-0.84-0.23-1.47-0.44-2.01c0.39-1.68-1.01-3.45-0.98-5.08c0.03-0.92,0.79-1.71,0.79-2.71
		c-0.02-1.49-0.64-1.95-1.11-3.36c1.06-1.67,0.44-4.65-0.55-6.27c1.87-1.22,0.62-3.25,0.38-4.92c-0.25-1.77,0.79-4.43-1.23-4.77
		c-2.09,0.06-5.59,0.36-7.16,1.85c-1.71-0.9-3.42-0.94-5.05-0.68L255.88,82c-1.33,0.05-2.07,0.6-3.06,1.17l-0.43,0.09l-1.87,0.08
		c-0.82-0.27-1.7-0.35-2.63-0.28l-2.24-0.03l-2.07,0.67c-1.47-0.99-2.84-0.41-4.32,0.2l-1.47,0.03l-1.89,0.78
		c-1.31-0.07-2.81-0.51-4.24-0.39c-1.92,0.16-3.66,0.86-5.22,0.86l-0.3-0.03l-1.49-0.28l0.17,0.08l-0.63,0.01
		c-1.93,0.34-3.06,1.88-5.14,1.67c-1.51-0.14-2.11-1.42-3.76-1.1c-1.01,0.03-0.77,1.11-1.73,1.17c-1.73-1.28-4.27-0.19-5.84,0.71
		c-1.99-1.85-4.31,0.23-6.07,0.33c-1,0.06-2.13-0.76-3.12-0.74c-1.28,0.03-2.47,0.85-3.78,0.95c-0.82,0.05-1.66-0.41-2.48-0.4
		c-1.82,0.01-3.39,1.06-5.19,1.06c-1.78,0-2.92-0.67-4.55-0.83c-1.06,0.42-1.81,1.1-2.92,1.48c-2.58-2.16-4.48,0.98-6.18,1.36
		c-1.77,0.38-4.06-1.01-6.15-0.48c-0.89,0.23-1.22,0.9-2.34,1.22c-1.31-1.35-3.51-1.08-4.86,0.22c-2.42-1.77-5.12,0.64-8.07,0.71
		c-2.15,0.05-4.61-1.22-6.39-0.87c-1.16,0.23-1.81,1.43-2.92,1.48c-1.69,0.08-3.76-1.83-4.85,0.42c-2.56-2.56-4.8,0.48-6.86,0.6
		c-0.86,0.05-1.84-0.83-2.72-0.78c-1.5,0.08-2.98,1.65-4.74,1.63c-0.9,0-1.79-0.83-2.71-0.78c-0.95,0.06-1.95,0.8-2.98,0.87
		c-0.94,0.07-2.02-0.46-2.88-0.35c-1.14,0.14-2.05,1.06-3.16,1.09c-1.24,0.03-2.53-0.91-3.52-0.71c-0.94,0.19-1.55,1.69-2.5,1.65
		c-1.5-1.09-5.53-0.61-6.87,0.6c-1.92-1.81-4.27-2.05-6.09,0.13c-1.94-2.19-3.92,0.52-5.64,0.69c-0.88,0.09-1.77-0.66-2.71-0.78
		c-2.64-0.35-4.55,0.68-6.98,1.63c-1.87-1.48-3.8-0.29-6.52-0.04c-1.09,0.09-2.21-0.27-3.06-0.14c-1.21,0.19-2.11,1.2-3.14,1.29
		c-1.18,0.11-2.26-0.79-3.32-0.73c-1.12,0.07-2.04,1.09-3.34,1.31c-1.3,0.22-2.87-0.59-4.11-0.45c-0.9,0.1-1.8,0.95-2.75,1.05
		c-1.15,0.13-2.47-0.58-3.71-0.49c-1.24,0.1-2.43,0.86-3.58,0.93c-1.26,0.08-2.5-0.58-3.71-0.49c-1.28,0.1-2.36,0.85-3.77,1.14
		c-2.53,0.52-3.88-0.29-5.52-0.33c-2.41-0.07-4.62,0.88-6.76,1.82c-1.66-1.11-4.97-1.31-7.58-0.57c-1.49,2.54-1.24,6.82,1.14,8.45
		c-1.69,1.78-1.1,4.76,0.55,6.27c-1.46,2.26-1.17,5.3,0.64,7.26c-1.94,1.72,0,4.48,1.12,5.81c-1.8,3.23-0.12,6.94,0.43,9.52
		c0.52,2.47-0.56,4.47-0.21,6.94c0.16,1.15,1,2.17,1.11,3.36c0.09,0.98-0.4,2.09-0.34,3.08c0.08,1.56,1.13,2.91,1.17,4.16
		c0.03,0.9-0.63,1.82-0.57,2.7c0.08,1.33,1.21,2.76,1.18,4.16c-0.03,1.32-0.85,2.25-0.73,3.32c0.13,1.12,1.23,2.04,1.31,3.34
		c0.05,1.06-0.8,2.2-0.71,3.52c0.16,2.43,0.9,4.7,0.62,7.07c0.82,0.7,1.06,1.47,1.05,2.31c0,0-0.6,1.99-0.51,3.02
		c-0.11,0.68-0.18,0.84-0.09,1.6c0.11,0.96,0.76,0.95,0.64,2.74c-0.17,1.01,0.99,1.75,0.72,3.13c-1.84,2.11-0.15,4.75,1.01,6.83
		c-1.8,1.77-0.95,4.71,0.57,6.46c-1.47,2.33-0.54,5.42,0.29,7.91c2.54,1.13,5.77-0.52,7.58-1.68c3.34,1.78,6.81,0.14,9.53-0.43
		c2.81-0.59,5.14,0.51,7.14,0.19c1.12-0.18,2.04-0.99,3.16-1.09c1.08-0.1,2.33,0.41,3.49,0.3c1.32-0.13,2.54-1.1,3.77-1.15
		c0.94-0.03,1.79,0.63,2.69,0.58c1.15-0.07,2.58-1.15,3.97-1.17c1.24-0.01,2.36,0.84,3.52,0.71c1.17-0.13,2.16-1.24,3.34-1.31
		c1.11-0.06,2.26,0.78,3.31,0.73c0.93-0.03,1.99-0.59,3-0.67c1.55-0.11,2.85,0.38,4.07,0.05c0.78-0.2,1.5-1.12,2.34-1.22
		c0.88-0.1,2.18,0.62,3.32,0.73c2.88,0.29,4.1-0.61,6.37-1.58c1.68,1.06,4.16,1.23,5.68-0.3c1.97,2.04,4.32,1.04,5.82-0.91
		c1.77,1.11,5.64,0.48,7.27-0.64c1.9,2.31,3.7,0.16,5.89-0.1c1.08-0.14,2.2,0.62,3.3,0.52c1.07-0.08,2.08-0.85,3.18-0.89
		c0.89-0.03,1.91,0.49,2.68,0.37c0.96-0.14,1.78-1.13,2.75-1.26c1.56-0.19,3.29,1.04,4.75,0.81c0.85-0.14,1.66-1.17,2.54-1.24
		c1.05-0.08,2.12,1.13,3.15,1.15c1.21,0.02,1.78-0.89,2.94-1.28c0.95-0.32,2.14-0.49,3.21-0.48c2.58,0.02,4.42,1,6.77,0.62
		c1.4-1.66,4.48-1.38,6.26-0.55c1.65-1.69,3.05-0.16,5.05-0.44c1.12-0.15,1.7-1.17,2.94-1.28c0.88-0.08,1.84,0.57,2.69,0.58
		c1.41,0.02,2.58-0.81,3.99-0.96c1.02-0.11,2.14,0.3,3.27,0.12c0.77-0.12,1.44-0.54,2.19-0.6c1.17-0.08,2.31,0.41,3.48,0.31
		c1.9-0.16,3.51-1.58,5.35-1.69c0.93-0.06,1.94,0.56,2.9,0.56c1.29,0,2.6-0.67,4-0.76c1.73-0.1,3.3-0.19,5.25-0.46
		c1.98-0.27,2.47,0.54,3.94,0.27c0.91-0.18,1.65-0.92,2.55-1.04c1.22-0.17,2.53,0.47,3.72,0.29c0.77-0.13,1.55-0.96,2.35-1.02
		c1.04-0.08,1.12,0.93,2.18,0.83c0.88-0.09,3.34-1.02,4.18-1.18c1.15-0.22,1.5,0.35,3.12,0.19c0,0,1.49,0.46,3.34-0.15
		c1.84-0.62,1.83-0.09,3.27-0.03L234.01,198.43z"/>
	<path class="st2" d="M233.99,198.48l0.02-0.04l-0.48,0.08L233.99,198.48z M235.01,194.78c-2.09,0.03-3.65,0.56-4.98,1.16
		c-1.64,0.73-3.69,0.52-5.48,0.22c-1.79-0.3-1.94-0.49-3.91,0.21c-1.97,0.69-4.11,0.82-4.35,0.92l-0.09,0.04l-2.1-0.19l-1.49-0.09
		c-1.94,0.23-2.99,1.11-3.79,1.29c-1.2,0.26-2.75-1.03-7.36-0.63c-1.29,0.11-4.62,1.41-5.85,1.42c-1.06,0.01-2.09-0.6-3.1-0.54
		c-1.97,0.11-3.58,1.58-5.55,1.71c-0.86,0.06-1.7-0.4-2.47-0.4c-1.3,0-2.31,0.6-3.6,0.73c-1.32,0.12-2.6-0.35-3.87-0.07l-1.97,0.78
		c-2.21,0.24-4.9-1.39-6.65,0.79c-1.34-0.68-3.75-0.87-4.85,0.43c-2.04-2.04-5.39,0.35-8.5,0.53c-2.96,0.18-5.65-0.99-8.35-0.08
		c-0.95,0.32-1.38,1.09-2.53,1.24c-1.13-1.41-4.3-1.53-5.49,0.08c-2.15-0.62-5.87-1.49-7.49,0.45c-1.42-0.41-4.52-0.73-5.65,0.5
		c-1.82-0.88-4.82-0.57-6.46,0.57c-0.81-0.04-1.49-0.97-2.53-1c-1.44-0.05-3.09,1.4-5.18,1.26l-2.29-0.61
		c-1.52,0.13-2.62,1.69-3.5,1.93c-1.22-1.24-3.96-1.22-5.07,0.24c-2.35-2.44-4.6,0.39-7.67,0.68c-1.91,0.17-4.34-1.26-5.98-0.9
		c-0.78,0.17-1.33,1.19-2.12,1.4c-0.71,0.2-1.97-0.16-3.26-0.12c-1.17,0.04-2.39,0.68-3.2,0.68c-0.88,0.01-1.75-0.75-2.51-0.79
		c-1.72-0.09-2.57,1.23-4.16,1.38c-1.35,0.14-2.2-1-4.32-0.63c-0.9,0.15-1.68,0.94-2.76,1.06c-1.26,0.14-2.62-0.89-3.92-0.68
		c-0.8,0.13-1.55,1.05-2.34,1.22c-1.25,0.27-2.68-0.38-4.09-0.24c-1.27,0.12-2.45,1-3.56,1.12c-2.1,0.24-3.94-0.84-6.93-0.2
		c-0.95,0.19-1.63,0.83-2.56,1.03c-2.68,0.6-4.75-0.78-6.97-0.61c-1.72,0.14-3.03,1.88-4.73,1.84c-2.29-2.17,0.66-6.56-2-8.99
		c0.56-1.63,1.47-2.44,1.04-4.37c-0.25-1.17-1.49-1.67-1.64-2.5c-0.19-1.06,0.93-1.8,0.96-2.93l-0.91-1.88
		c-0.54-1.22-0.04-1.4,0.24-2.27c0.28-0.88-0.21-2.09-0.21-2.09l-0.57-1.41c0.21-0.97,0.56-1.93,0.72-2.82v-0.02l0.03-1.4
		c-0.17-0.77-1.2-1.36-1.41-2.12c-0.25-0.95,0.28-3.04,0-4.68l-0.57-1.78c0-0.9,0.76-1.71,0.8-2.51c0.09-1.75-1.23-2.58-1.39-4.16
		c-0.13-1.33,1.05-2.31,0.63-4.53c-0.17-0.87-0.93-1.6-1.04-2.56c-0.14-1.31,0.89-2.64,0.68-3.92c-0.14-0.82-1.05-1.52-1.22-2.34
		c-0.27-1.26,0.38-2.72,0.25-4.09c-0.12-1.28-1-2.43-1.12-3.56c-0.25-2.2,0.86-4.12,0.19-7.15c-0.16-0.71-0.81-1.44-1.02-2.35
		c-0.84-3.74,2.3-8.06-1.28-10.06c0.72-1.18,1.09-1.44,1-2.53c-0.12-1.42-1.79-2.15-1.91-3.29c-0.13-1.19,1.64-2.36,1.48-4
		c-0.14-1.49-1.3-1.8-2.1-3.07c0.31-1.54,1.49-1.97,1.33-3.38c-0.19-1.75-3.3-3-1.91-5.52c1.87-1.47,3.72,0.54,5.54,0.53
		c1.84-0.02,3.81-1.84,6.77-1.82c1.57,0.02,3.84,0.79,6.33,0.26c1.08-0.23,2.09-0.97,3.16-1.09c1.17-0.13,2.59,0.55,3.91,0.47
		c1.4-0.08,2.8-0.97,3.99-0.96c0.92,0.01,1.82,0.79,2.71,0.79c1.26-0.03,2.32-1.22,3.55-1.33c1.7-0.16,3.02,0.74,4.51,0.42
		c0.87-0.19,1.74-1.14,2.54-1.24c1.33-0.16,2.57,0.91,4.12,0.66c1.01-0.17,1.39-0.61,2.54-1.24c2.87,1.05,6.9-1.81,8.78,0.46
		c2.46-0.24,3.78-1.82,6.14-1.96c2.55-0.16,5.42,2.18,7.27-0.64c1.52,1.07,4.15,0.92,5.23-0.66c0.93,0.05,2.1,1.39,3.57,1.32
		c1.49-0.08,2.85-1.33,4.58-1.22c2,0.13,3.96,1.29,5.21-0.86c1.77,0.53,4.83,0.93,6.26-0.55c1.6,0.79,4.55,0.31,6.06-0.53
		c1.55,1.06,2.89,0.89,5.1,0.17l2.15-1.01c0.89-0.04,1.85,0.84,2.72,0.78c1.24-0.08,2.19-0.98,3.12-1.49
		c1.14-0.25,2.15,0.95,3.34,0.93c0.7-0.02,1.58-0.95,2.55-1.04c0.79-0.06,2.08,0.79,3.51,0.51c1-0.19,1.84-0.79,2.52-1.44
		c1.9,0.35,3.39,0.93,5.57,0.94c2.08,0,3.9-1.25,5.79-1.33c1.57-0.06,3.71,1.5,4.83-0.62c0.79,0.42,1.67,1.06,2.73,0.99
		c0.9-0.07,1.67-1.02,2.75-1.26c1.87-0.42,4.04,0.77,5.74,0.52c1.42-0.21,2.58-1.37,3.49-1.93c0.87,0.21,1.6,0.65,2.5,0.59
		c1.04-0.06,1.9-0.9,2.96-1.07c1.06-0.17,2.08,0.42,3.51,0.51c2.09,0.13,4.1-1.04,6-1.13l2.28,0.41c1.6,0.02,2.91-0.98,4.19-0.98
		c0.96,0,1.8,0.76,2.71,0.78c1.15,0.03,2.22-1.01,3.56-1.12c1.12-0.09,2.41,0.79,3.32,0.73c1.13-0.08,1.96-0.84,2.94-1.28
		c1.59,0.73,3.67,0.76,5.05-0.44c2.2,1.3,6.79,1.56,8.48-0.74c1.44,0.64,2.88,0.24,4.58-0.15l0.88,0.46l1.89-0.79
		c1.33-0.15,2.63,0.88,3.93,0.67l0.83-0.36l1.7-0.21l1.25-0.65c0.84,0.11,1.72,0.35,2.65,0.26l1.12-0.29l0.21,0.02
		c0.95,0.03,2.23-0.56,3.49-0.86c1.05,0.08,2.13,0.33,3.36,0.39l1.48,0.35l2.57-1.27l1.82-0.43c2.2-0.1,4.21,0.99,6.17,0.72
		c1.82-0.24,3.4-2.47,5.35-1.69c0.18,1.82-0.28,3.76,0.83,4.81c-2.29,1.49-0.32,3.34-0.11,5.71c0.09,1.08-0.63,2.28-0.52,3.3
		c0.08,0.93,0.96,1.7,1.03,2.55c0.09,1-1.12,2.09-0.93,5.18c0,0,0.4,1.31,1.05,2.92l0.17,0.41l0.39,1.71
		c0.18,1.97-1.25,4.37-0.9,5.97c0.17,0.78,1.19,1.34,1.41,2.12c0.25,0.93-0.26,2.85-0.02,4.48l0.58,1.98c0,0.9-0.76,1.66-0.8,2.51
		c-0.09,1.69,1.23,2.6,1.38,4.16c0.14,1.37-1,2.18-0.63,4.33c0.16,0.94,0.94,1.71,1.06,2.75c0.14,1.33-0.89,2.61-0.68,3.93
		c0.13,0.8,1.05,1.52,1.22,2.33c0.25,1.19-0.39,2.66-0.25,4.1c0.13,1.33,1.04,2.59,1.14,3.76c0.19,2.02-0.83,3.86-0.22,6.74
		c0.19,0.9,0.83,1.66,1.05,2.75c0.67,3.23-1.72,6.28,0.35,8.51c-2.28,2.33,1.12,3.85,1.3,5.58c0.14,1.27-1.64,2.38-1.49,4
		c0.14,1.45,1.23,1.75,2.1,3.07c-0.27,1.47-1.41,1.9-1.35,3.18c0.07,1.44,2.44,3.05,1.76,6.15c-2.12,0.97-3.45-0.91-5.17-0.97
		c-2.07-0.07-4.45,1.93-7.16,1.85c-1.9-0.05-3.4-0.85-6.13-0.28c-1.02,0.21-2,0.96-3.16,1.09c-1.19,0.14-2.61-0.55-3.91-0.47
		c-2.6,0.15-4.54,1.91-6.5,0.16c-1.33-0.03-2.51,1.23-3.75,1.35c-1.71,0.16-3.01-0.74-4.51-0.42
		C235.68,194.8,235.01,194.78,235.01,194.78 M234.01,198.43c1.01-0.26,2.19-1.03,3.31-1.22c1.28-0.22,2.86,0.59,4.1,0.46
		c0.98-0.12,1.93-1,2.96-1.08c0.97-0.07,2.05,0.59,3.1,0.55c1.32-0.06,2.64-0.88,3.98-0.96c1.42-0.08,2.63,0.61,3.91,0.47
		c1.19-0.13,2.21-0.85,3.56-1.12c2.47-0.5,3.87,0.28,5.52,0.33c2.37,0.07,4.64-0.87,6.76-1.82c1.66,1.11,4.97,1.31,7.58,0.56
		c0.73-2.11,0.46-7.08-1.14-8.45c1.69-1.77,1.1-4.75-0.55-6.26c1.4-2.4,1.39-5.57-0.63-7.26c0.79-1.49,0.24-3.21-0.59-4.43
		c1.87-3.07,0.13-6.77-0.41-9.32c-0.51-2.43,0.55-4.5,0.21-6.94c-0.16-1.13-1.01-2.22-1.11-3.36c-0.09-0.98,0.4-2.05,0.34-3.07
		c-0.08-1.49-1.12-2.87-1.18-4.17c-0.03-0.98,0.65-1.93,0.57-2.9c-0.13-1.37-1.19-2.58-1.17-3.97c0.03-1.27,0.9-2.31,0.71-3.52
		c-0.15-1.07-1.23-2.03-1.29-3.14c-0.06-1.06,0.77-2.14,0.75-3.12c-0.03-0.99-0.61-2.04-0.69-3.2c-0.11-1.49,0.35-2.94,0.05-4.07
		c-0.2-0.77-1.12-1.49-1.22-2.33c-0.17-1.48,0.91-3.21,0.79-4.96c-0.06-0.84-0.23-1.47-0.44-2.01c0.39-1.68-1.01-3.45-0.98-5.08
		c0.03-0.92,0.79-1.71,0.79-2.71c-0.02-1.49-0.64-1.95-1.11-3.36c1.06-1.67,0.44-4.65-0.55-6.27c1.87-1.22,0.62-3.25,0.38-4.92
		c-0.25-1.77,0.79-4.43-1.23-4.77c-2.09,0.06-5.59,0.36-7.16,1.85c-1.71-0.9-3.42-0.94-5.05-0.68L255.88,82
		c-1.33,0.05-2.07,0.6-3.06,1.17l-0.43,0.09l-1.87,0.08c-0.82-0.27-1.7-0.35-2.63-0.28l-2.24-0.03l-2.07,0.67
		c-1.47-0.99-2.84-0.41-4.32,0.2l-1.47,0.03l-1.89,0.78c-1.31-0.07-2.81-0.51-4.24-0.39c-1.92,0.16-3.66,0.86-5.22,0.86l-0.3-0.03
		l-1.49-0.28l0.17,0.08l-0.63,0.01c-1.93,0.34-3.06,1.88-5.14,1.67c-1.51-0.14-2.11-1.42-3.76-1.1c-1.01,0.03-0.77,1.11-1.73,1.17
		c-1.73-1.28-4.27-0.19-5.84,0.71c-1.99-1.85-4.31,0.23-6.07,0.33c-1,0.06-2.13-0.76-3.12-0.74c-1.28,0.03-2.47,0.85-3.78,0.95
		c-0.82,0.05-1.66-0.41-2.48-0.4c-1.82,0.01-3.39,1.06-5.19,1.06c-1.78,0-2.92-0.67-4.55-0.83c-1.06,0.42-1.81,1.1-2.92,1.48
		c-2.58-2.16-4.48,0.98-6.18,1.36c-1.77,0.38-4.06-1.01-6.15-0.48c-0.89,0.23-1.22,0.9-2.34,1.22c-1.31-1.35-3.51-1.08-4.86,0.22
		c-2.42-1.77-5.12,0.64-8.07,0.71c-2.15,0.05-4.61-1.22-6.39-0.87c-1.16,0.23-1.81,1.43-2.92,1.48c-1.69,0.08-3.76-1.83-4.85,0.42
		c-2.56-2.56-4.8,0.48-6.86,0.6c-0.86,0.05-1.84-0.83-2.72-0.78c-1.5,0.08-2.98,1.65-4.74,1.63c-0.9,0-1.79-0.83-2.71-0.78
		c-0.95,0.06-1.95,0.8-2.98,0.87c-0.94,0.07-2.02-0.46-2.88-0.35c-1.14,0.14-2.05,1.06-3.16,1.09c-1.24,0.03-2.53-0.91-3.52-0.71
		c-0.94,0.19-1.55,1.69-2.5,1.65c-1.5-1.09-5.53-0.61-6.87,0.6c-1.92-1.81-4.27-2.05-6.09,0.13c-1.94-2.19-3.92,0.52-5.64,0.69
		c-0.88,0.09-1.77-0.66-2.71-0.78c-2.64-0.35-4.55,0.68-6.98,1.63c-1.87-1.48-3.8-0.29-6.52-0.04c-1.09,0.09-2.21-0.27-3.06-0.14
		c-1.21,0.19-2.11,1.2-3.14,1.29c-1.18,0.11-2.26-0.79-3.32-0.73c-1.12,0.07-2.04,1.09-3.34,1.31c-1.3,0.22-2.87-0.59-4.11-0.45
		c-0.9,0.1-1.8,0.95-2.75,1.05c-1.15,0.13-2.47-0.58-3.71-0.49c-1.24,0.1-2.43,0.86-3.58,0.93c-1.26,0.08-2.5-0.58-3.71-0.49
		c-1.28,0.1-2.36,0.85-3.77,1.14c-2.53,0.52-3.88-0.29-5.52-0.33c-2.41-0.07-4.62,0.88-6.76,1.82c-1.66-1.11-4.97-1.31-7.58-0.57
		c-1.49,2.54-1.24,6.82,1.14,8.45c-1.69,1.78-1.1,4.76,0.55,6.27c-1.46,2.26-1.17,5.3,0.64,7.26c-1.94,1.72,0,4.48,1.12,5.81
		c-1.8,3.23-0.12,6.94,0.43,9.52c0.52,2.47-0.56,4.47-0.21,6.94c0.16,1.15,1,2.17,1.11,3.36c0.09,0.98-0.4,2.09-0.34,3.08
		c0.08,1.56,1.13,2.91,1.17,4.16c0.03,0.9-0.63,1.82-0.57,2.7c0.08,1.33,1.21,2.76,1.18,4.16c-0.03,1.32-0.85,2.25-0.73,3.32
		c0.13,1.12,1.23,2.04,1.31,3.34c0.05,1.06-0.8,2.2-0.71,3.52c0.16,2.43,0.9,4.7,0.62,7.07c0.82,0.7,1.06,1.47,1.05,2.31
		c0,0-0.6,1.99-0.51,3.02c-0.11,0.68-0.18,0.84-0.09,1.6c0.11,0.96,0.76,0.95,0.64,2.74c-0.17,1.01,0.99,1.75,0.72,3.13
		c-1.84,2.11-0.15,4.75,1.01,6.83c-1.8,1.77-0.95,4.71,0.57,6.46c-1.47,2.33-0.54,5.42,0.29,7.91c2.54,1.13,5.77-0.52,7.58-1.68
		c3.34,1.78,6.81,0.14,9.53-0.43c2.81-0.59,5.14,0.51,7.14,0.19c1.12-0.18,2.04-0.99,3.16-1.09c1.08-0.1,2.33,0.41,3.49,0.3
		c1.32-0.13,2.54-1.1,3.77-1.15c0.94-0.03,1.79,0.63,2.69,0.58c1.15-0.07,2.58-1.15,3.97-1.17c1.24-0.01,2.36,0.84,3.52,0.71
		c1.17-0.13,2.16-1.24,3.34-1.31c1.11-0.06,2.26,0.78,3.31,0.73c0.93-0.03,1.99-0.59,3-0.67c1.55-0.11,2.85,0.38,4.07,0.05
		c0.78-0.2,1.5-1.12,2.34-1.22c0.88-0.1,2.18,0.62,3.32,0.73c2.88,0.29,4.1-0.61,6.37-1.58c1.68,1.06,4.16,1.23,5.68-0.3
		c1.97,2.04,4.32,1.04,5.82-0.91c1.77,1.11,5.64,0.48,7.27-0.64c1.9,2.31,3.7,0.16,5.89-0.1c1.08-0.14,2.2,0.62,3.3,0.52
		c1.07-0.08,2.08-0.85,3.18-0.89c0.89-0.03,1.91,0.49,2.68,0.37c0.96-0.14,1.78-1.13,2.75-1.26c1.56-0.19,3.29,1.04,4.75,0.81
		c0.85-0.14,1.66-1.17,2.54-1.24c1.05-0.08,2.12,1.13,3.15,1.15c1.21,0.02,1.78-0.89,2.94-1.28c0.95-0.32,2.14-0.49,3.21-0.48
		c2.58,0.02,4.42,1,6.77,0.62c1.4-1.66,4.48-1.38,6.26-0.55c1.65-1.69,3.05-0.16,5.05-0.44c1.12-0.15,1.7-1.17,2.94-1.28
		c0.88-0.08,1.84,0.57,2.69,0.58c1.41,0.02,2.58-0.81,3.99-0.96c1.02-0.11,2.14,0.3,3.27,0.12c0.77-0.12,1.44-0.54,2.19-0.6
		c1.17-0.08,2.31,0.41,3.48,0.31c1.9-0.16,3.51-1.58,5.35-1.69c0.93-0.06,1.94,0.56,2.9,0.56c1.29,0,2.6-0.67,4-0.76
		c1.73-0.1,3.3-0.19,5.25-0.46c1.98-0.27,2.47,0.54,3.94,0.27c0.91-0.18,1.65-0.92,2.55-1.04c1.22-0.17,2.53,0.47,3.72,0.29
		c0.77-0.13,1.55-0.96,2.35-1.02c1.04-0.08,1.12,0.93,2.18,0.83c0.88-0.09,3.34-1.02,4.18-1.18c1.15-0.22,1.5,0.35,3.12,0.19
		c0,0,1.49,0.46,3.34-0.15c1.84-0.62,1.83-0.09,3.27-0.03L234.01,198.43z"/>
	
		<rect x="97.07" y="169.33" transform="matrix(0.9962 -0.0871 0.0871 0.9962 -14.8999 9.4978)" class="st1" width="8.53" height="12.13"/>
	<path class="st2" d="M62.62,174.01l-4.11,15.16c-0.82,2.92-1.37,5.92-1.77,8.9c-1.13-0.1-1.9-0.14-3.01-0.04
		c-1.16,0.1-2.36,0.31-3.51,0.62c-1.39-4.86-8.37-23.53-13.36-34.14c1.63,0.12,3.51,0.01,5.18-0.14c1.56-0.14,3.26-0.44,4.61-0.71
		c1.52,5.16,2.42,7.82,5.24,15.67c1.68,4.63,2.26,6.06,2.96,7.73l2.85-10.42c1.31-4.75,2.42-9.52,3.13-14.21
		c1.38,0.08,2.45,0.09,3.35,0.01c0.91-0.08,1.81-0.25,2.85-0.55c0.42,1.33,0.77,2.37,1.68,4.69c1.82,4.57,7.09,16.57,8.05,18.72
		l2.96-15.06c1.29-6.68,1.33-7.35,1.34-9.59c1.07,0.02,2.2,0.12,3.26,0.03c1.06-0.09,1.96-0.32,2.65-0.54
		c-0.45,1.36-0.52,1.62-2.13,8.28l-4.37,18.13c-0.48,2.03-1.53,7.46-1.85,9.62c-1.07-0.06-2-0.13-3.06-0.03
		c-1.11,0.1-2.21,0.3-3.3,0.59c-1.45-3.78-2.53-6.8-4.31-10.76L62.62,174.01z"/>
	<path class="st2" d="M49.36,200.19L49.01,199c-1.38-4.82-8.4-23.58-13.29-33.94l-0.92-1.95l2.15,0.15c1.4,0.09,2.91,0.03,4.98-0.15
		c1.23-0.1,2.74-0.34,4.48-0.68l1.14-0.23l0.33,1.11c1.49,5.08,2.36,7.69,5.21,15.6c0.66,1.82,1.15,3.15,1.55,4.19l1.86-6.79
		c1.44-5.23,2.46-9.82,3.1-14.07l0.17-1.14l1.16,0.07c1.37,0.08,2.35,0.08,3.18,0.02c0.8-0.07,1.6-0.23,2.62-0.52l1.18-0.34
		l0.36,1.17c0.41,1.28,0.73,2.28,1.66,4.6c1.3,3.25,4.38,10.35,6.4,14.98l2.18-11.1c1.32-6.77,1.32-7.26,1.33-9.33l0.01-1.28
		l1.27,0.01l1.1,0.03l2.04-0.01c1.01-0.08,1.84-0.32,2.38-0.48l2.33-0.73l-0.75,2.32c-0.42,1.3-0.48,1.5-2.09,8.18l-4.37,18.13
		c-0.48,2.02-1.53,7.44-1.83,9.51l-0.17,1.15l-1.49-0.08c-0.87-0.05-1.66-0.1-2.53-0.03c-1.02,0.09-2.06,0.28-3.08,0.56l-1.11,0.3
		l-1.21-3.17c-1.11-2.91-2.06-5.42-3.48-8.6l-3.91-8.71l-3.19,11.74c-0.73,2.62-1.29,5.47-1.73,8.74l-0.16,1.21l-1.21-0.11
		c-1.01-0.1-1.75-0.14-2.78-0.04c-1.11,0.09-2.25,0.3-3.29,0.57L49.36,200.19z M38.87,165.82c4.59,10.09,10.35,25.42,12.23,31.33
		c0.84-0.18,1.69-0.3,2.53-0.37l2.03-0.05c0.43-2.91,0.97-5.49,1.64-7.89l5.04-18.57l6.82,15.17c1.45,3.24,2.47,5.91,3.53,8.74
		l0.41,1.05c0.8-0.17,1.6-0.29,2.4-0.36l2.1-0.03c0.43-2.55,1.26-6.79,1.69-8.59l4.37-18.14c0.83-3.44,1.25-5.17,1.54-6.26
		l-0.72,0.08l-2.12,0.03c-0.07,1.58-0.31,3.14-1.36,8.51l-3.72,19.01l-1.63-3.68c-1.25-2.84-6.29-14.33-8.07-18.77
		c-0.67-1.7-1.04-2.72-1.34-3.64l-1.9,0.3c-0.69,0.06-1.45,0.08-2.4,0.04c-0.66,4.03-1.64,8.37-2.98,13.23l-3.82,13.94l-1.42-3.36
		c-0.71-1.66-1.29-3.1-2.99-7.79c-2.65-7.37-3.61-10.19-4.93-14.64c-1.37,0.24-2.58,0.41-3.62,0.51
		C40.91,165.74,39.82,165.8,38.87,165.82"/>
	<path class="st2" d="M99.51,158.63c0.88,0.13,1.79,0.14,2.65,0.07c0.81-0.07,1.66-0.24,2.45-0.52
		c5.96,13.51,13.01,27.15,16.77,34.24c-1.58-0.12-3.2-0.03-4.76,0.11c-1.67,0.14-3.79,0.33-5.33,0.77c-1.92-5.12-3.41-8.19-4.1-9.65
		c-1.72,0.09-3.45,0.14-5.26,0.3c-1.87,0.16-3.83,0.39-5.79,0.66c-0.64,2.55-1.63,6.4-2.16,10.21c-0.97-0.07-4.52,0.09-5.6,0.49
		C90.88,188.53,96.9,168.88,99.51,158.63 M100.59,169.21l-3.33,11.44c1.38-0.02,2.75-0.09,4.1-0.21c1.41-0.13,2.82-0.35,4.23-0.52
		L100.59,169.21z"/>
	<path class="st2" d="M86.23,197.45l0.95-2.58c2.39-6.44,8.43-26.06,11.1-36.55l0.28-1.11l1.13,0.17c0.76,0.11,1.59,0.14,2.36,0.06
		l2.15-0.45l1.1-0.38l0.46,1.06c6.02,13.63,13.07,27.26,16.74,34.16l1.07,2.03l-2.28-0.17c-1.37-0.1-2.63-0.06-4.57,0.11
		c-1.65,0.14-3.67,0.32-5.08,0.73l-1.12,0.32l-0.41-1.09c-1.62-4.32-2.91-7.14-3.7-8.8l-0.79,0.04c-1.16,0.06-2.36,0.11-3.57,0.22
		c-1.6,0.14-3.25,0.32-4.88,0.54c-0.62,2.44-1.46,5.9-1.93,9.24l-0.16,1.17l-1.18-0.08l-0.5-0.01c-1.55,0-3.94,0.19-4.58,0.42
		L86.23,197.45z M100.47,159.99c-2.55,9.76-7.53,26.06-10.18,33.7c0.97-0.09,1.96-0.14,2.59-0.15c0.54-3.36,1.38-6.67,1.94-8.94
		l0.29-1.12l0.84-0.12c1.96-0.27,3.93-0.5,5.86-0.67c1.27-0.11,2.48-0.17,3.67-0.23l1.63-0.08l0.86-0.04l0.51,1.09
		c0.71,1.49,1.98,4.17,3.6,8.4c1.43-0.28,3.05-0.42,4.41-0.54c1.08-0.1,1.96-0.15,2.77-0.17c-3.77-7.15-9.94-19.21-15.36-31.41
		l-1.63,0.26L100.47,159.99 M95.57,181.94l4.74-16.3l7.17,15.32l-1.72,0.22l-1.28,0.17c-0.98,0.13-1.99,0.27-3.01,0.35
		c-1.39,0.13-2.8,0.19-4.2,0.21L95.57,181.94z M100.86,172.8l-1.9,6.53l2.29-0.15c0.81-0.07,1.65-0.18,2.46-0.29L100.86,172.8z"/>
	<path class="st2" d="M126.78,164.74c-0.29-3.23-0.78-5.99-1.21-7.98c1.64,0.11,3.26,0.02,4.92-0.13c1.56-0.14,3.07-0.37,4.57-0.71
		c-0.03,3.72,0.14,7.98,0.31,10.05l1.44,16.4c0.12,1.46,0.3,2.97,0.48,4.43c3.29-0.29,8.78-0.77,11.81-1.7
		c-0.09,1.23,0.26,4.16,0.42,4.85c-2.54,0.03-5.84,0.11-8.67,0.35c-3.53,0.31-7.6,0.92-12.18,1.47c0.07-2.7-0.03-5.64-0.35-9.22
		L126.78,164.74z"/>
	<path class="st2" d="M127.39,193.21l0.03-1.46c0.07-2.74-0.04-5.62-0.35-9.09l-1.55-17.82c-0.23-2.59-0.63-5.23-1.18-7.82
		l-0.35-1.65l1.67,0.11c1.42,0.1,2.7,0.06,4.73-0.12c1.5-0.14,2.95-0.35,4.4-0.68l1.55-0.35l-0.01,1.6
		c-0.03,3.64,0.14,7.91,0.31,9.92l1.44,16.4c0.09,1.05,0.21,2.1,0.34,3.18c3.25-0.29,7.77-0.75,10.33-1.54l1.78-0.54l-0.15,1.86
		c-0.08,1.04,0.24,3.83,0.4,4.45l0.36,1.55l-1.59,0.02c-2.31,0.02-5.67,0.09-8.57,0.35c-2.27,0.19-4.82,0.53-7.53,0.88
		c-1.48,0.19-3.02,0.4-4.61,0.58L127.39,193.21z M127.13,158.07c0.41,2.18,0.72,4.38,0.91,6.55l1.55,17.82
		c0.26,2.96,0.38,5.51,0.38,7.91c1.07-0.14,2.12-0.28,3.14-0.41c2.73-0.35,5.3-0.69,7.64-0.9c2.42-0.21,5.12-0.3,7.31-0.34
		l-0.19-1.98c-3.21,0.7-7.64,1.09-10.46,1.33l-1.22,0.11l-0.15-1.22c-0.19-1.52-0.37-3.01-0.5-4.48l-1.44-16.4
		c-0.15-1.77-0.3-5.21-0.32-8.61c-1.05,0.19-2.1,0.32-3.18,0.42C129.21,158.01,128.14,158.07,127.13,158.07"/>
	<path class="st2" d="M155.54,163.95c-0.29-3.23-0.73-6.49-1.36-9.7c1.58,0.06,3.16,0.03,4.72-0.11c3.89-0.34,6.01-0.84,9.9-1.17
		c9.65-0.84,17.66,4.16,18.64,15.35c0.86,9.85-4.57,18.72-17.34,19.83c-1.77,0.16-5.26,0.16-6.62,0.28
		c-0.91,0.08-3.89,0.39-6.23,0.84c0.01-3.35-0.08-6.71-0.37-10.03L155.54,163.95z M165.46,180.78c0.11,1.26,0.28,2.57,0.44,3.83
		c0.62,0.05,0,0.25,1.66,0.11c2.83-0.24,6.11-1.09,8.27-3.83c2.92-3.77,2.69-9.95,2.53-11.82c-0.27-3.08-1.26-7.93-4.79-10.52
		c-2.82-2.04-5.5-1.86-7.68-1.66c-2.57,0.23-1.74,0.2-2.34,0.3c0.09,1.06,0.28,5.02,0.44,6.73L165.46,180.78z"/>
	<path class="st2" d="M155.97,190.82l0.01-1.55c0.02-3.79-0.1-6.94-0.36-9.92l-1.33-15.3c-0.3-3.34-0.74-6.55-1.34-9.56l-0.31-1.58
		l1.6,0.07c1.53,0.07,3.06,0.03,4.56-0.1c1.91-0.17,3.42-0.37,4.88-0.57c1.49-0.21,3.04-0.42,5.03-0.6l2.16-0.09
		c10.11,0,16.95,6.36,17.85,16.6c0.46,5.38-0.89,10.38-3.83,14.09c-3.26,4.1-8.33,6.56-14.67,7.11c-0.98,0.09-2.41,0.13-3.78,0.17
		c-1.15,0.03-2.24,0.06-2.84,0.11c-0.93,0.08-3.85,0.39-6.1,0.83L155.97,190.82z M155.72,155.55c0.47,2.64,0.84,5.42,1.09,8.29
		l1.33,15.3c0.23,2.65,0.35,5.42,0.37,8.64c2.43-0.38,4.82-0.6,4.86-0.6c0.68-0.06,1.8-0.08,2.99-0.12
		c1.34-0.04,2.73-0.08,3.63-0.15c5.63-0.5,10.09-2.63,12.91-6.17c2.57-3.23,3.71-7.48,3.29-12.29c-0.79-8.94-6.51-14.29-15.32-14.29
		l-1.94,0.08c-1.92,0.17-3.44,0.38-4.9,0.58c-1.49,0.2-3.03,0.42-5.01,0.59C157.92,155.5,156.81,155.55,155.72,155.55
		 M166.68,186.04L166.68,186.04l-0.92-0.17l-0.96-0.07l-0.16-1.03c-0.15-1.2-0.33-2.56-0.44-3.88l-1.48-16.87
		c-0.08-0.97-0.19-2.64-0.27-4.1c-0.07-1.14-0.13-2.15-0.17-2.62l-0.1-1.16l1.15-0.2c0.36-0.11,0.54-0.15,2.46-0.32l2.11-0.11
		c1.55,0,3.91,0.2,6.41,2.01c3.8,2.8,4.98,7.76,5.31,11.44c0.16,1.93,0.46,8.53-2.8,12.71c-1.97,2.5-5.05,3.95-9.15,4.31
		L166.68,186.04 M164.89,158.25l0.09,1.52c0.08,1.45,0.18,3.1,0.26,4.04l1.48,16.87c0.08,0.93,0.19,1.9,0.3,2.81l0.42-0.03
		c3.43-0.3,5.84-1.39,7.38-3.34c2.75-3.54,2.36-9.72,2.26-10.93c-0.28-3.15-1.25-7.38-4.27-9.6c-1.47-1.06-2.99-1.53-4.92-1.53
		l-1.89,0.1L164.89,158.25"/>
	<path class="st2" d="M213.68,185.01c-11.26,0.99-19.07-4.43-20.11-16.29c-0.93-10.66,4.51-19.02,17.23-20.13
		c10.85-0.95,19.21,4.21,20.23,15.88C232.16,177.44,223.84,184.12,213.68,185.01 M211.22,152.16c-7.67,0.67-9.13,8.07-8.44,16
		c0.88,10.04,5.34,13.72,10.59,13.27c6.41-0.57,9.32-6.41,8.48-16.06C221.12,157.04,217.78,151.59,211.22,152.16"/>
	<path class="st2" d="M211.15,186.39c-10.99,0-17.85-6.41-18.83-17.58c-1.08-12.36,5.79-20.39,18.38-21.5
		c0.87-0.08,1.74-0.11,2.58-0.11c10.96,0,18.07,6.4,19.02,17.15c0.56,6.41-1.1,11.87-4.79,15.79c-3.31,3.51-8.06,5.63-13.72,6.12
		C212.9,186.35,212.01,186.39,211.15,186.39 M213.28,149.74c-0.77,0-1.56,0.04-2.36,0.11c-11.17,0.98-17.04,7.81-16.07,18.75
		c0.86,9.84,6.66,15.25,16.31,15.25c0.79,0,1.6-0.03,2.42-0.1c5.03-0.44,9.21-2.29,12.09-5.35c3.18-3.37,4.6-8.15,4.1-13.83
		C228.94,155.15,222.93,149.74,213.28,149.74 M212.52,182.73L212.52,182.73c-2.92,0-9.86-1.41-11-14.46
		c-1.18-13.56,4.56-16.93,9.59-17.36l1.04-0.05c6.26,0,10.15,5.12,10.97,14.41c0.45,5.08-0.12,9.16-1.66,12.13
		c-1.65,3.15-4.4,4.98-7.97,5.3L212.52,182.73 M212.14,153.39l-0.82,0.03c-2.09,0.19-8.49,0.74-7.28,14.63
		c0.68,7.83,3.7,12.15,8.47,12.15l0.74-0.03c2.71-0.24,4.71-1.56,5.95-3.94c1.33-2.53,1.79-6.14,1.39-10.73
		C220.11,159.97,218.25,153.39,212.14,153.39"/>
	<path class="st2" d="M247.2,169.81l-0.22-2.39c-0.52-5.6,6.98-8.78,6.41-14.97c-0.35-3.83-3.24-6.06-7.16-5.14
		c-3.38,0.79-4.34,5.44-3.6,5.36c2.15-0.22,3.8,1.48,3.96,3.4c0.15,1.8-1.23,4.04-3.91,4.29c-3.62,0.33-6.03-2.37-6.34-5.83
		c-0.62-6.64,4.97-10.85,11.06-11.42c5.86-0.54,13.15,1.82,13.79,8.73c0.82,8.89-10.33,10.35-9.7,17.26l0.03,0.31L247.2,169.81z
		 M249.67,172.78c2.45-0.24,4.5,1.44,4.74,3.9c0.24,2.45-1.45,4.49-3.9,4.74c-2.45,0.24-4.5-1.45-4.74-3.9
		C245.53,175.07,247.22,173.01,249.67,172.78"/>
	<path class="st2" d="M250.05,182.71c-2.92,0-5.25-2.13-5.54-5.07c-0.3-3.13,1.91-5.82,5.03-6.12c3.19-0.3,5.82,1.91,6.12,5.04
		c0.3,3.13-1.91,5.81-5.03,6.12L250.05,182.71 M250.14,174.02l-0.35,0.02c-1.74,0.17-2.93,1.61-2.76,3.35
		c0.18,1.75,1.58,2.94,3.36,2.76c1.74-0.17,2.93-1.61,2.76-3.36C252.99,175.16,251.75,174.02,250.14,174.02 M246.06,171.19
		l-0.35-3.65c-0.3-3.22,1.56-5.63,3.35-7.97c1.71-2.22,3.31-4.32,3.07-6.99c-0.24-2.64-1.82-4.21-4.2-4.21l-1.42,0.18
		c-1.55,0.36-2.41,1.91-2.72,2.91c2.15,0.37,3.86,2.22,4.05,4.51c0.21,2.47-1.66,5.34-5.06,5.65c-4.13,0.38-7.31-2.59-7.72-6.97
		c-0.7-7.59,5.61-12.19,12.2-12.8c6.68-0.62,14.48,2.36,15.17,9.88c0.5,5.35-2.79,8.29-5.68,10.87c-2.28,2.04-4.25,3.79-4.01,6.39
		l0.18,1.57L246.06,171.19z M247.94,145.83c3.66,0,6.36,2.61,6.71,6.5c0.35,3.67-1.74,6.39-3.57,8.78
		c-1.63,2.13-3.04,3.96-2.84,6.19l0.1,1.13l1.87-0.17c0.13-3.33,2.53-5.47,4.86-7.56c2.69-2.4,5.23-4.66,4.85-8.75
		c-0.52-5.65-6.2-7.65-10.9-7.65l-1.51,0.07c-5.34,0.49-10.46,4.1-9.91,10.03c0.23,2.47,1.89,4.97,4.97,4.69
		c2.04-0.19,2.85-1.86,2.76-2.92c-0.09-1.17-1.11-2.39-2.56-2.24l-0.15,0.01c-0.65,0-1.35-0.45-1.47-1.44
		c-0.18-1.55,1.23-5.59,4.8-6.43L247.94,145.83"/>
	<path class="st3" d="M62.62,174.01l-4.11,15.16c-0.82,2.92-1.37,5.92-1.77,8.9c-1.13-0.1-1.9-0.14-3.01-0.04
		c-1.16,0.1-2.36,0.31-3.51,0.62c-1.39-4.86-8.37-23.53-13.36-34.14c1.63,0.12,3.51,0.01,5.18-0.14c1.56-0.14,3.26-0.44,4.61-0.71
		c1.52,5.16,2.42,7.82,5.24,15.67c1.68,4.63,2.26,6.06,2.96,7.73l2.85-10.42c1.31-4.75,2.42-9.52,3.13-14.21
		c1.38,0.08,2.45,0.09,3.35,0.01c0.91-0.08,1.81-0.25,2.85-0.55c0.42,1.33,0.77,2.37,1.68,4.69c1.82,4.57,7.09,16.57,8.05,18.72
		l2.96-15.06c1.29-6.68,1.33-7.35,1.34-9.59c1.07,0.02,2.2,0.12,3.26,0.03c1.06-0.09,1.96-0.32,2.65-0.54
		c-0.45,1.36-0.52,1.62-2.13,8.28l-4.37,18.13c-0.48,2.03-1.53,7.46-1.85,9.62c-1.07-0.06-2-0.13-3.06-0.03
		c-1.11,0.1-2.21,0.3-3.3,0.59c-1.45-3.78-2.53-6.8-4.31-10.76L62.62,174.01z"/>
	<path class="st3" d="M99.51,158.63c0.88,0.13,1.79,0.14,2.65,0.07c0.81-0.07,1.66-0.24,2.45-0.52
		c5.96,13.51,13.01,27.15,16.77,34.24c-1.58-0.12-3.2-0.03-4.76,0.11c-1.67,0.14-3.79,0.33-5.33,0.77c-1.92-5.12-3.41-8.19-4.1-9.65
		c-1.72,0.09-3.45,0.14-5.26,0.3c-1.87,0.16-3.83,0.39-5.79,0.66c-0.64,2.55-1.63,6.4-2.16,10.21c-0.97-0.07-4.52,0.09-5.6,0.49
		C90.88,188.53,96.9,168.88,99.51,158.63 M100.59,169.21l-3.33,11.44c1.38-0.02,2.75-0.09,4.1-0.21c1.41-0.13,2.82-0.35,4.23-0.52
		L100.59,169.21z"/>
	<path class="st3" d="M126.78,164.74c-0.29-3.23-0.78-5.99-1.21-7.98c1.64,0.11,3.26,0.02,4.92-0.13c1.56-0.14,3.07-0.37,4.57-0.71
		c-0.03,3.72,0.14,7.98,0.31,10.05l1.44,16.4c0.12,1.46,0.3,2.97,0.48,4.43c3.29-0.29,8.78-0.77,11.81-1.7
		c-0.09,1.23,0.26,4.16,0.42,4.85c-2.54,0.03-5.84,0.11-8.67,0.35c-3.53,0.31-7.6,0.92-12.18,1.47c0.07-2.7-0.03-5.64-0.35-9.22
		L126.78,164.74z"/>
	<path class="st3" d="M155.54,163.95c-0.29-3.23-0.73-6.49-1.36-9.7c1.58,0.06,3.16,0.03,4.72-0.11c3.89-0.34,6.01-0.84,9.9-1.17
		c9.65-0.84,17.66,4.16,18.64,15.35c0.86,9.85-4.57,18.72-17.34,19.83c-1.77,0.16-5.26,0.16-6.62,0.28
		c-0.91,0.08-3.89,0.39-6.23,0.84c0.01-3.35-0.08-6.71-0.37-10.03L155.54,163.95z M165.46,180.78c0.11,1.26,0.28,2.57,0.44,3.83
		c0.62,0.05,0,0.25,1.66,0.11c2.83-0.24,6.11-1.09,8.27-3.83c2.92-3.77,2.69-9.95,2.53-11.82c-0.27-3.08-1.26-7.93-4.79-10.52
		c-2.82-2.04-5.5-1.86-7.68-1.66c-2.57,0.23-1.74,0.2-2.34,0.3c0.09,1.06,0.28,5.02,0.44,6.73L165.46,180.78z"/>
	<path class="st3" d="M213.68,185.01c-11.26,0.99-19.07-4.43-20.11-16.29c-0.93-10.66,4.51-19.02,17.23-20.13
		c10.85-0.95,19.21,4.21,20.23,15.88C232.16,177.44,223.84,184.12,213.68,185.01 M211.22,152.16c-7.67,0.67-9.13,8.07-8.44,16
		c0.88,10.04,5.34,13.72,10.59,13.27c6.41-0.57,9.32-6.41,8.48-16.06C221.12,157.04,217.78,151.59,211.22,152.16"/>
	<path class="st3" d="M247.2,169.81l-0.22-2.39c-0.52-5.6,6.98-8.78,6.41-14.97c-0.35-3.83-3.24-6.06-7.16-5.14
		c-3.38,0.79-4.34,5.44-3.6,5.36c2.15-0.22,3.8,1.48,3.96,3.4c0.15,1.8-1.23,4.04-3.91,4.29c-3.62,0.33-6.03-2.37-6.34-5.83
		c-0.62-6.64,4.97-10.85,11.06-11.42c5.86-0.54,13.15,1.82,13.79,8.73c0.82,8.89-10.33,10.35-9.7,17.26l0.03,0.31L247.2,169.81z
		 M249.67,172.78c2.45-0.24,4.5,1.44,4.74,3.9c0.24,2.45-1.45,4.49-3.9,4.74c-2.45,0.24-4.5-1.45-4.74-3.9
		C245.53,175.07,247.22,173.01,249.67,172.78"/>
	<path class="st2" d="M58.6,128.07l-4.11,15.16c-0.82,2.92-1.37,5.92-1.77,8.9c-1.13-0.1-1.9-0.14-3.01-0.04
		c-1.17,0.1-2.36,0.31-3.51,0.62c-1.39-4.86-8.37-23.53-13.36-34.13c1.63,0.11,3.51-0.01,5.18-0.15c1.56-0.14,3.26-0.44,4.61-0.71
		c1.52,5.16,2.42,7.83,5.24,15.67c1.68,4.64,2.26,6.06,2.96,7.73l2.85-10.42c1.31-4.75,2.42-9.53,3.13-14.21
		c1.38,0.08,2.45,0.09,3.35,0.01c0.91-0.08,1.81-0.25,2.85-0.55c0.42,1.33,0.77,2.37,1.68,4.69c1.82,4.57,7.09,16.57,8.05,18.72
		l2.96-15.06c1.29-6.68,1.34-7.35,1.34-9.58c1.07,0.01,2.2,0.11,3.26,0.02c1.06-0.09,1.96-0.32,2.65-0.54
		c-0.45,1.36-0.52,1.62-2.13,8.28l-4.37,18.13c-0.48,2.03-1.53,7.46-1.85,9.62c-1.07-0.05-2-0.13-3.06-0.03
		c-1.11,0.09-2.21,0.3-3.3,0.59c-1.45-3.78-2.53-6.8-4.31-10.76L58.6,128.07z"/>
	<path class="st2" d="M45.34,154.25L45,153.06c-1.39-4.82-8.41-23.57-13.29-33.94l-0.92-1.95l2.15,0.15
		c1.4,0.09,2.86,0.03,4.98-0.15c1.23-0.1,2.75-0.34,4.48-0.68l1.14-0.23l0.33,1.11c1.5,5.1,2.38,7.72,5.21,15.59
		c0.66,1.82,1.15,3.15,1.55,4.19l1.86-6.79c1.44-5.21,2.46-9.81,3.1-14.07l0.17-1.14l1.16,0.07c1.36,0.08,2.34,0.08,3.18,0.02
		c0.8-0.08,1.64-0.24,2.62-0.52l1.18-0.33l0.36,1.17c0.41,1.27,0.73,2.28,1.66,4.59c1.28,3.22,4.37,10.35,6.4,14.98l2.18-11.09
		c1.28-6.57,1.32-7.19,1.33-9.34v-1.28l1.28,0.01l1.1,0.03l2.04-0.01c1.01-0.08,1.84-0.32,2.38-0.48l2.33-0.73l-0.75,2.32
		c-0.42,1.3-0.48,1.5-2.09,8.18l-4.37,18.13c-0.48,1.99-1.53,7.42-1.83,9.51l-0.17,1.14l-1.53-0.08c-0.86-0.05-1.63-0.1-2.51-0.03
		c-1.02,0.09-2.06,0.28-3.07,0.56l-1.11,0.3l-1.2-3.15c-1.11-2.91-2.06-5.44-3.49-8.62l-3.91-8.72l-3.19,11.75
		c-0.73,2.61-1.29,5.46-1.73,8.74l-0.16,1.21l-1.21-0.11c-1.01-0.1-1.75-0.14-2.78-0.04c-1.1,0.09-2.24,0.3-3.29,0.57L45.34,154.25z
		 M34.85,119.88c4.59,10.1,10.36,25.43,12.23,31.33c0.84-0.18,1.7-0.3,2.53-0.37l2.03-0.05c0.43-2.91,0.96-5.5,1.63-7.89l5.04-18.57
		l6.82,15.17c1.45,3.26,2.42,5.81,3.54,8.77l0.4,1.02c0.79-0.17,1.6-0.29,2.4-0.36l2.1-0.03c0.43-2.56,1.26-6.81,1.69-8.59
		l4.37-18.13c0.83-3.45,1.25-5.19,1.54-6.27l-0.72,0.08l-2.12,0.03c-0.07,1.57-0.31,3.13-1.35,8.51l-3.73,19.01l-1.63-3.68
		c-0.06-0.14-6.05-13.71-8.07-18.77c-0.67-1.7-1.04-2.72-1.34-3.63l-1.9,0.3c-0.7,0.06-1.46,0.07-2.4,0.04
		c-0.66,4.04-1.64,8.38-2.98,13.23l-3.82,13.94l-1.42-3.36c-0.72-1.69-1.31-3.14-2.99-7.79c-2.64-7.35-3.6-10.16-4.93-14.64
		c-1.37,0.24-2.58,0.41-3.62,0.51C36.86,119.81,35.8,119.87,34.85,119.88"/>
	<path class="st2" d="M89.46,121.51c-0.25-2.83-0.78-5.98-1.09-7.79c1.54,0.07,3.11,0.03,4.77-0.11c2.07-0.19,3.82-0.54,4.57-0.71
		c0.06,4.73,0.33,7.85,0.87,14.06c2.69-0.13,4.86-0.27,7.14-0.47c2.17-0.19,4.44-0.39,7.31-0.79l-0.57-6.46
		c-0.18-2.07-0.69-5.59-1.06-7.54c1.06,0.01,3.25,0.03,4.82-0.11c1.71-0.15,3.87-0.54,4.62-0.71c-0.08,4.38,0.81,14.58,1.25,19.57
		c0.53,6.11,0.99,11.31,1.86,15.46c-1.58-0.06-3.15-0.03-4.67,0.1c-1.66,0.15-3.32,0.4-4.92,0.74c0.09-1.28,0.22-3.28-0.1-6.97
		l-0.86-9.79c-2.18,0.09-4.65,0.25-7.38,0.49c-2.63,0.24-5.24,0.52-7.05,0.77l0.93,10.65c0.19,2.13,0.57,4.74,0.84,6.04
		c-0.92-0.03-2.8-0.07-4.62,0.09c-1.11,0.1-3.23,0.39-4.72,0.72c0.03-2.54,0.03-4.88-0.34-9.12L89.46,121.51z"/>
	<path class="st2" d="M90.1,150.34l0.02-1.6c0.03-2.58,0.03-4.89-0.34-9l-1.59-18.13c-0.23-2.61-0.69-5.48-1.07-7.69l-0.27-1.55
		l1.58,0.07c1.49,0.07,2.99,0.03,4.6-0.11c2.04-0.18,3.76-0.53,4.4-0.68l1.52-0.35l0.03,1.56c0.05,4.37,0.29,7.36,0.76,12.75
		c2.21-0.12,4.02-0.24,5.87-0.41c1.88-0.16,3.78-0.33,6.05-0.63l-0.46-5.25c-0.18-2.1-0.7-5.59-1.05-7.41l-0.29-1.52l1.55,0.01
		l1.03,0.01c1.55,0,2.79-0.04,3.67-0.12c1.63-0.14,3.73-0.52,4.45-0.68l1.58-0.35l-0.03,1.61c-0.08,4.37,0.85,14.93,1.25,19.44
		c0.53,6.06,0.99,11.24,1.84,15.3l0.34,1.6l-1.63-0.07c-1.53-0.06-3.06-0.03-4.51,0.1c-1.62,0.14-3.23,0.38-4.76,0.71l-1.65,0.35
		l0.12-1.68c0.08-1.16,0.22-3.08-0.1-6.77l-0.75-8.58c-1.84,0.1-3.89,0.24-6.11,0.44c-2.17,0.19-4.21,0.4-5.79,0.6l0.82,9.45
		c0.19,2.09,0.57,4.64,0.82,5.89l0.32,1.56l-1.6-0.04l-1.5-0.03c-1.11,0-2.1,0.04-2.97,0.12c-0.99,0.08-3.05,0.35-4.55,0.69
		L90.1,150.34z M89.87,115.02c0.32,1.97,0.66,4.25,0.84,6.38l1.59,18.13c0.3,3.4,0.36,5.59,0.35,7.7c1.2-0.21,2.48-0.37,3.34-0.45
		c0.94-0.08,2.02-0.13,3.19-0.13h0.02c-0.22-1.37-0.45-3.12-0.57-4.63l-1.04-11.85l1.18-0.17c1.73-0.25,4.32-0.53,7.13-0.78
		c2.75-0.24,5.26-0.41,7.44-0.5l1.21-0.05l0.96,11c0.21,2.47,0.24,4.17,0.19,5.52c1.13-0.19,2.29-0.35,3.45-0.45
		c1.05-0.09,2.1-0.14,3.24-0.14c-0.7-3.92-1.12-8.64-1.58-14c-0.4-4.48-1.17-13.2-1.26-18.2c-0.98,0.17-2.2,0.35-3.24,0.44
		c-0.87,0.08-2.02,0.12-3.43,0.13c0.32,1.93,0.68,4.44,0.82,6.16l0.67,7.66l-1.19,0.17c-2.88,0.4-5.14,0.6-7.33,0.79
		c-2.25,0.19-4.39,0.34-7.21,0.47l-1.22,0.07l-0.1-1.22c-0.49-5.57-0.76-8.66-0.85-12.64c-0.87,0.15-1.98,0.32-3.22,0.43
		c-1.16,0.1-2.26,0.15-3.36,0.15H89.87z"/>
	<path class="st2" d="M130.65,116.73c-0.2-2.27-0.55-4.53-1.04-6.62c4.41-0.19,8.61-0.35,11.75-0.62c2.78-0.24,5.39-0.57,8.9-1.18
		c-0.08,0.77,0.15,4.05,0.42,4.85c-3.39-0.32-8.18,0.05-11.52,0.35c0.06,1.82,0.16,3.6,0.32,5.41l0.46,5.14
		c4.09-0.35,7.36-0.64,11.21-1.54c-0.08,0.82,0.25,4.05,0.42,4.8c-3.78-0.08-6.66,0.18-11.3,0.58l0.88,10.04
		c0.07,0.76,0.19,1.46,0.3,2.16c2.53-0.22,7.87-0.73,11.29-1.75c-0.08,0.87,0.2,4.1,0.44,5c-3.26-0.03-7.96,0.29-11.44,0.59
		c-3.23,0.28-6.49,0.77-9.31,1.22c0.24-2.51,0.02-7.37-0.22-10.15L130.65,116.73z"/>
	<path class="st2" d="M131.01,146.68l0.16-1.63c0.23-2.41,0-7.26-0.23-9.92l-1.55-18.29c-0.19-2.26-0.54-4.43-1-6.44l-0.35-1.49
		l2.19-0.09c4.16-0.17,8.09-0.33,11.04-0.58c2.9-0.25,5.52-0.61,8.79-1.17l1.66-0.29l-0.19,1.67l0.36,4.29l0.63,1.86l-1.95-0.18
		c-0.82-0.08-1.78-0.12-2.88-0.12c-2.34,0-4.89,0.17-7.2,0.36c0.06,1.41,0.14,2.77,0.27,4.14l0.34,3.89
		c3.51-0.31,6.42-0.62,9.77-1.4l1.72-0.41l-0.18,1.77l0.4,4.38l0.35,1.58l-1.61-0.03c-3.35-0.06-6,0.14-9.9,0.47l0.77,8.78l0.1,0.9
		c4.39-0.42,7.7-0.96,9.86-1.6l1.79-0.53l-0.17,1.86c-0.07,0.73,0.21,3.8,0.41,4.57l0.41,1.59l-1.96-0.01
		c-2.67,0-6.78,0.22-11.01,0.59c-3.19,0.28-6.45,0.77-9.21,1.21L131.01,146.68z M131.17,111.31c0.33,1.69,0.58,3.47,0.74,5.31
		l1.55,18.28c0.19,2.13,0.39,5.97,0.31,8.77c2.44-0.37,5.16-0.75,7.85-0.99c1.45-0.13,6.17-0.52,10.07-0.59l-0.19-2.11
		c-2.45,0.56-5.79,1.02-9.95,1.39l-1.17,0.1l-0.19-1.16c-0.12-0.72-0.24-1.45-0.3-2.26l-0.99-11.31l1.26-0.11
		c4.1-0.35,6.8-0.59,9.94-0.6l-0.18-1.95c-3.29,0.66-6.23,0.92-9.85,1.23l-1.26,0.11l-0.14-1.26l-0.45-5.14
		c-0.16-1.8-0.27-3.6-0.33-5.49l-0.03-1.2l1.19-0.1c2.67-0.24,5.78-0.47,8.63-0.47l1.48,0.03L149,109.8
		c-2.69,0.44-5.01,0.73-7.53,0.95C138.67,110.99,135.04,111.15,131.17,111.31"/>
	<path class="st2" d="M178.6,123.78l8.91,11.68c0.92,1.2,2.96,3.51,4.03,4.23l-0.12,0.31c-1.74-0.1-3.51,0-5.28,0.16
		c-2.17,0.19-3.37,0.4-5.28,0.77c-0.24-0.44-1.28-2.39-3.39-5.05l-7.8-10.05l-0.21-0.08l-0.03,0.31c0.41,4.74,0.71,7.52,1.14,11.24
		c0.18,1.51,0.31,3.02,0.64,4.47c-1.44-0.08-3.06-0.03-4.52,0.09c-1.31,0.11-3.32,0.44-4.57,0.71c0.05-4.69-0.41-9.43-1.31-19.58
		c-0.68-7.82-1.09-12.52-1.76-15.46c2.24,0.01,4.27-0.07,5.53-0.18c3.12-0.27,6.28-0.85,9.41-1.12c1.82-0.16,11-0.96,11.79,8.02
		C186.33,120.26,181.45,123.17,178.6,123.78 M169.18,122.98l1.52-0.08c1.87-0.16,7.07-0.62,6.48-7.33
		c-0.51-5.75-4.21-5.73-7.09-5.48l-1.91,0.27L169.18,122.98z"/>
	<path class="st2" d="M160.86,144.13l0.02-1.58c0.04-4.16-0.33-8.32-1.06-16.6l-0.24-2.85c-0.68-7.74-1.09-12.42-1.74-15.29
		l-0.35-1.55l1.93,0.01c1.93,0,3.83-0.07,5.07-0.18c1.54-0.14,3.12-0.35,4.65-0.56c1.55-0.21,3.18-0.43,4.77-0.57
		c0.37-0.03,1.07-0.1,1.96-0.1c6.6,0,10.68,3.38,11.2,9.27c0.48,5.52-3.08,8.9-6.37,10.3l7.82,10.26c0.93,1.22,2.85,3.35,3.72,3.94
		l0.86,0.57l-0.85,2.11l-0.91-0.05c-1.78-0.1-3.72,0.03-5.08,0.15c-2.04,0.18-3.19,0.37-5.14,0.75l-0.91,0.18l-0.45-0.81
		c-0.88-1.62-1.97-3.23-3.27-4.86l-5.44-7.02c0.26,2.74,0.49,4.88,0.79,7.5l0.1,0.87c0.14,1.22,0.27,2.36,0.52,3.46l0.37,1.64
		l-1.68-0.09c-1.36-0.08-2.91-0.03-4.34,0.09c-1.25,0.1-3.23,0.43-4.42,0.68L160.86,144.13z M160.62,108.79
		c0.52,3.04,0.9,7.45,1.48,14.09l0.25,2.85c0.65,7.36,1.01,11.5,1.06,15.31c1.07-0.19,2.28-0.36,3.19-0.44
		c1.01-0.09,2.08-0.14,3.1-0.14l-0.27-2.15l-0.1-0.86c-0.42-3.72-0.72-6.48-1.14-11.28l0.3-1.22l0.35-0.41l0.67-0.06l1.01,0.4
		l0.18,0.19l7.8,10.04c1.17,1.49,2.2,2.96,3.05,4.41c1.55-0.29,2.69-0.46,4.5-0.62c0.74-0.06,1.65-0.14,2.61-0.17
		c-0.88-0.95-1.71-1.93-2.13-2.49l-10.13-13.28l1.96-0.41c1.88-0.41,6.69-2.66,6.2-8.18c-0.4-4.62-3.32-6.96-8.67-6.96
		c-0.78,0-1.4,0.06-1.74,0.08c-1.54,0.14-3.12,0.35-4.65,0.56c-1.55,0.22-3.17,0.43-4.76,0.57
		C163.67,108.71,162.19,108.77,160.62,108.79 M169.35,124.25L168,124.2l-1.17-14.82l1.05-0.26l2.04-0.3l1.74-0.09
		c4.11,0,6.4,2.26,6.79,6.72c0.46,5.3-2.1,8.23-7.63,8.71L169.35,124.25 M169.53,111.4l0.81,10.25l0.25-0.03
		c3.02-0.26,5.75-1.17,5.33-5.95c-0.32-3.67-1.93-4.42-4.27-4.42l-1.45,0.08L169.53,111.4"/>
	<path class="st2" d="M196.3,110.99c-0.2-2.27-0.55-4.53-1.04-6.62c4.41-0.19,8.61-0.35,11.75-0.62c2.77-0.24,5.39-0.57,8.9-1.18
		c-0.09,0.77,0.14,4.05,0.42,4.85c-3.39-0.32-8.18,0.05-11.52,0.35c0.06,1.82,0.16,3.59,0.32,5.41l0.46,5.14
		c4.09-0.35,7.36-0.64,11.21-1.54c-0.08,0.82,0.25,4.05,0.41,4.8c-3.77-0.08-6.65,0.17-11.29,0.58l0.88,10.04
		c0.07,0.76,0.19,1.46,0.3,2.16c2.53-0.22,7.87-0.73,11.29-1.75c-0.08,0.87,0.2,4.1,0.44,5c-3.26-0.03-7.96,0.29-11.44,0.59
		c-3.23,0.28-6.49,0.77-9.31,1.22c0.24-2.51,0.02-7.37-0.23-10.15L196.3,110.99z"/>
	<path class="st2" d="M196.65,140.93l0.16-1.63c0.23-2.42,0-7.26-0.23-9.92l-1.55-18.29c-0.2-2.26-0.54-4.43-1.01-6.44l-0.35-1.49
		l2.3-0.09c4.11-0.17,8.01-0.33,10.93-0.58c2.91-0.25,5.53-0.61,8.79-1.17l1.66-0.29l-0.18,1.67l0.35,4.29l0.64,1.86l-1.95-0.18
		c-0.82-0.08-1.79-0.12-2.89-0.12c-2.35,0-4.97,0.18-7.2,0.36c0.07,1.39,0.15,2.76,0.28,4.15l0.34,3.89
		c3.49-0.31,6.41-0.62,9.77-1.4l1.72-0.41l-0.18,1.77l0.4,4.39l0.35,1.57l-1.61-0.03c-3.35-0.07-5.99,0.13-9.89,0.46l0.77,8.78
		l0.1,0.9c4.39-0.41,7.7-0.95,9.86-1.59l1.78-0.53l-0.16,1.85c-0.06,0.74,0.21,3.82,0.41,4.58l0.41,1.6l-1.96-0.02
		c-3.99,0-9.43,0.46-11.01,0.59c-3.21,0.28-6.46,0.77-9.21,1.21L196.65,140.93z M196.81,105.57c0.34,1.7,0.58,3.47,0.75,5.31
		l1.55,18.28c0.19,2.12,0.39,5.96,0.31,8.77c2.43-0.37,5.14-0.75,7.85-0.99c1.45-0.13,6.15-0.52,10.07-0.59l-0.19-2.11
		c-2.45,0.56-5.79,1.02-9.95,1.39l-1.18,0.1l-0.19-1.26c-0.11-0.68-0.22-1.39-0.29-2.15L204.55,121l1.26-0.11
		c4.1-0.35,6.79-0.59,9.94-0.6l-0.18-1.95c-3.29,0.66-6.25,0.92-9.87,1.24l-1.27,0.11l-0.56-6.41c-0.16-1.82-0.27-3.62-0.33-5.49
		l-0.03-1.19l1.19-0.11c2.5-0.22,5.74-0.47,8.62-0.47l1.49,0.03l-0.16-1.98c-2.68,0.44-5,0.73-7.53,0.95
		C204.31,105.26,200.68,105.41,196.81,105.57"/>
	<path class="st2" d="M252.54,106.83c-1.29-3.75-4.38-4.6-6.99-4.38c-1.01,0.09-5.7,0.6-5.32,4.89c0.28,3.18,2.63,3.89,10.36,6.22
		c1.51,0.48,3.64,1.51,5.19,3.46c1.31,1.61,1.83,3.61,2.01,5.57c0.57,6.56-3.69,11.93-12.42,12.69c-5.09,0.45-8.16-0.86-9.86-1.63
		c0.43-2.07,0.61-5.3,0.45-7.06l1.27-0.11c1.2,4.48,5.16,5.5,8.19,5.24c4.24-0.37,5.84-3.01,5.61-5.58
		c-0.24-2.82-2.09-3.48-8.48-5.62c-4.76-1.61-8.13-3.97-8.61-9.52c-0.61-6.97,3.7-11.31,11.32-11.98c4.8-0.42,7.49,0.72,9.55,1.6
		c-0.81,1.8-1.16,4.83-1.15,6.11L252.54,106.83z"/>
	<path class="st2" d="M243.34,136.64c-4.32,0-7.04-1.24-8.36-1.83l-0.93-0.42l0.21-0.99c0.42-2.03,0.57-5.15,0.43-6.7l-0.11-1.26
		l3.58-0.31l0.27,1.02c1.02,3.78,4.25,4.34,6.08,4.34l0.78-0.03c3.01-0.26,4.67-1.84,4.47-4.21c-0.17-1.9-1.21-2.38-7.62-4.53
		c-4.36-1.48-8.89-3.89-9.48-10.62c-0.67-7.61,4-12.6,12.46-13.34l2.1-0.09c3.89,0,6.3,1.04,8.07,1.8l1.18,0.51l-0.52,1.17
		c-0.71,1.56-1.05,4.42-1.04,5.57l0.01,1.17l-3.26,0.29l-0.32-0.94c-0.81-2.36-2.5-3.56-5.02-3.56l-0.68,0.03
		c-2.02,0.18-4.39,0.94-4.16,3.52c0.19,2.17,1.49,2.71,9.46,5.11c1.38,0.43,3.93,1.5,5.82,3.89c1.3,1.6,2.05,3.65,2.28,6.24
		c0.32,3.7-0.73,6.98-3.05,9.49c-2.41,2.59-6.04,4.17-10.52,4.57L243.34,136.64 M236.93,132.89c1.35,0.56,3.42,1.22,6.42,1.22
		l1.91-0.08c3.84-0.34,6.92-1.64,8.88-3.77c1.82-1.97,2.65-4.58,2.39-7.55c-0.18-2.07-0.74-3.67-1.73-4.88
		c-1.48-1.87-3.51-2.71-4.59-3.05c-7.92-2.38-10.89-3.28-11.24-7.31c-0.3-3.49,2.18-5.89,6.47-6.27l0.9-0.04
		c2.7,0,4.87,1.06,6.27,3.01c0.13-0.9,0.32-1.91,0.6-2.82c-1.47-0.58-3.31-1.13-5.96-1.13l-1.87,0.08
		c-6.99,0.61-10.7,4.48-10.16,10.6c0.43,4.96,3.41,6.96,7.76,8.44c6.37,2.13,9,3.01,9.33,6.71c0.27,3.13-1.71,6.5-6.77,6.94l-1,0.05
		c-3.16,0-5.73-1.27-7.27-3.49C237.19,130.68,237.08,131.86,236.93,132.89"/>
	<path class="st2" d="M224.57,107.58c0.83,0,1.53-0.57,1.72-0.6c0.55-0.08,0.64,3.45-2.12,4.58l0.61,1.21
		c3.65-1.25,4.48-3.95,4.46-6.52c-0.02-2.64-1.55-5.02-4.4-5.03c-1.91,0-3.29,1.43-3.29,3.29
		C221.54,106.36,222.71,107.58,224.57,107.58"/>
	<path class="st2" d="M224.14,114.33l-1.71-3.43l1.27-0.52c0.82-0.34,1.25-1,1.46-1.59l-0.59,0.05c-1.26,0-2.33-0.42-3.12-1.22
		c-0.77-0.79-1.18-1.88-1.17-3.13c0-2.59,1.97-4.55,4.55-4.55c3.32,0.01,5.65,2.58,5.68,6.28c0.03,3.91-1.76,6.51-5.32,7.73
		L224.14,114.33z M226.31,105.71c0.59,0,1.28,0.37,1.49,1.43l0.06,0.57l0.11-1.45c-0.01-1.88-0.99-3.76-3.14-3.77
		c-1.18,0-2.02,0.84-2.02,2.02l0.45,1.35l1.31,0.46l0.82-0.3l0.72-0.28L226.31,105.71z"/>
	<path class="st4" d="M58.6,128.07l-4.11,15.16c-0.82,2.92-1.37,5.92-1.77,8.9c-1.13-0.1-1.9-0.14-3.01-0.04
		c-1.17,0.1-2.36,0.31-3.51,0.62c-1.39-4.86-8.37-23.53-13.36-34.13c1.63,0.11,3.51-0.01,5.18-0.15c1.56-0.14,3.26-0.44,4.61-0.71
		c1.52,5.16,2.42,7.83,5.24,15.67c1.68,4.64,2.26,6.06,2.96,7.73l2.85-10.42c1.31-4.75,2.42-9.53,3.13-14.21
		c1.38,0.08,2.45,0.09,3.35,0.01c0.91-0.08,1.81-0.25,2.85-0.55c0.42,1.33,0.77,2.37,1.68,4.69c1.82,4.57,7.09,16.57,8.05,18.72
		l2.96-15.06c1.29-6.68,1.34-7.35,1.34-9.58c1.07,0.01,2.2,0.11,3.26,0.02c1.06-0.09,1.96-0.32,2.65-0.54
		c-0.45,1.36-0.52,1.62-2.13,8.28l-4.37,18.13c-0.48,2.03-1.53,7.46-1.85,9.62c-1.07-0.05-2-0.13-3.06-0.03
		c-1.11,0.09-2.21,0.3-3.3,0.59c-1.45-3.78-2.53-6.8-4.31-10.76L58.6,128.07z"/>
	<path class="st4" d="M89.46,121.51c-0.25-2.83-0.78-5.98-1.09-7.79c1.54,0.07,3.11,0.03,4.77-0.11c2.07-0.19,3.82-0.54,4.57-0.71
		c0.06,4.73,0.33,7.85,0.87,14.06c2.69-0.13,4.86-0.27,7.14-0.47c2.17-0.19,4.44-0.39,7.31-0.79l-0.57-6.46
		c-0.18-2.07-0.69-5.59-1.06-7.54c1.06,0.01,3.25,0.03,4.82-0.11c1.71-0.15,3.87-0.54,4.62-0.71c-0.08,4.38,0.81,14.58,1.25,19.57
		c0.53,6.11,0.99,11.31,1.86,15.46c-1.58-0.06-3.15-0.03-4.67,0.1c-1.66,0.15-3.32,0.4-4.92,0.74c0.09-1.28,0.22-3.28-0.1-6.97
		l-0.86-9.79c-2.18,0.09-4.65,0.25-7.38,0.49c-2.63,0.24-5.24,0.52-7.05,0.77l0.93,10.65c0.19,2.13,0.57,4.74,0.84,6.04
		c-0.92-0.03-2.8-0.07-4.62,0.09c-1.11,0.1-3.23,0.39-4.72,0.72c0.03-2.54,0.03-4.88-0.34-9.12L89.46,121.51z"/>
	<path class="st4" d="M130.65,116.73c-0.2-2.27-0.55-4.53-1.04-6.62c4.41-0.19,8.61-0.35,11.75-0.62c2.78-0.24,5.39-0.57,8.9-1.18
		c-0.08,0.77,0.15,4.05,0.42,4.85c-3.39-0.32-8.18,0.05-11.52,0.35c0.06,1.82,0.16,3.6,0.32,5.41l0.46,5.14
		c4.09-0.35,7.36-0.64,11.21-1.54c-0.08,0.82,0.25,4.05,0.42,4.8c-3.78-0.08-6.66,0.18-11.3,0.58l0.88,10.04
		c0.07,0.76,0.19,1.46,0.3,2.16c2.53-0.22,7.87-0.73,11.29-1.75c-0.08,0.87,0.2,4.1,0.44,5c-3.26-0.03-7.96,0.29-11.44,0.59
		c-3.23,0.28-6.49,0.77-9.31,1.22c0.24-2.51,0.02-7.37-0.22-10.15L130.65,116.73z"/>
	<path class="st4" d="M178.6,123.78l8.91,11.68c0.92,1.2,2.96,3.51,4.03,4.23l-0.12,0.31c-1.74-0.1-3.51,0-5.28,0.16
		c-2.17,0.19-3.37,0.4-5.28,0.77c-0.24-0.44-1.28-2.39-3.39-5.05l-7.8-10.05l-0.21-0.08l-0.03,0.31c0.41,4.74,0.71,7.52,1.14,11.24
		c0.18,1.51,0.31,3.02,0.64,4.47c-1.44-0.08-3.06-0.03-4.52,0.09c-1.31,0.11-3.32,0.44-4.57,0.71c0.05-4.69-0.41-9.43-1.31-19.58
		c-0.68-7.82-1.09-12.52-1.76-15.46c2.24,0.01,4.27-0.07,5.53-0.18c3.12-0.27,6.28-0.85,9.41-1.12c1.82-0.16,11-0.96,11.79,8.02
		C186.33,120.26,181.45,123.17,178.6,123.78 M169.18,122.98l1.52-0.08c1.87-0.16,7.07-0.62,6.48-7.33
		c-0.51-5.75-4.21-5.73-7.09-5.48l-1.91,0.27L169.18,122.98z"/>
	<path class="st4" d="M196.3,110.99c-0.2-2.27-0.55-4.53-1.04-6.62c4.41-0.19,8.61-0.35,11.75-0.62c2.77-0.24,5.39-0.57,8.9-1.18
		c-0.09,0.77,0.14,4.05,0.42,4.85c-3.39-0.32-8.18,0.05-11.52,0.35c0.06,1.82,0.16,3.59,0.32,5.41l0.46,5.14
		c4.09-0.35,7.36-0.64,11.21-1.54c-0.08,0.82,0.25,4.05,0.41,4.8c-3.77-0.08-6.65,0.17-11.29,0.58l0.88,10.04
		c0.07,0.76,0.19,1.46,0.3,2.16c2.53-0.22,7.87-0.73,11.29-1.75c-0.08,0.87,0.2,4.1,0.44,5c-3.26-0.03-7.96,0.29-11.44,0.59
		c-3.23,0.28-6.49,0.77-9.31,1.22c0.24-2.51,0.02-7.37-0.23-10.15L196.3,110.99z"/>
	<path class="st4" d="M252.54,106.83c-1.29-3.75-4.38-4.6-6.99-4.38c-1.01,0.09-5.7,0.6-5.32,4.89c0.28,3.18,2.63,3.89,10.36,6.22
		c1.51,0.48,3.64,1.51,5.19,3.46c1.31,1.61,1.83,3.61,2.01,5.57c0.57,6.56-3.69,11.93-12.42,12.69c-5.09,0.45-8.16-0.86-9.86-1.63
		c0.43-2.07,0.61-5.3,0.45-7.06l1.27-0.11c1.2,4.48,5.16,5.5,8.19,5.24c4.24-0.37,5.84-3.01,5.61-5.58
		c-0.24-2.82-2.09-3.48-8.48-5.62c-4.76-1.61-8.13-3.97-8.61-9.52c-0.61-6.97,3.7-11.31,11.32-11.98c4.8-0.42,7.49,0.72,9.55,1.6
		c-0.81,1.8-1.16,4.83-1.15,6.11L252.54,106.83z"/>
	<path class="st4" d="M224.57,107.58c0.83,0,1.53-0.57,1.72-0.6c0.55-0.08,0.64,3.45-2.12,4.58l0.61,1.21
		c3.65-1.25,4.48-3.95,4.46-6.52c-0.02-2.64-1.55-5.02-4.4-5.03c-1.91,0-3.29,1.43-3.29,3.29
		C221.54,106.36,222.71,107.58,224.57,107.58"/>
	<path class="st3" d="M259.55,171.36l0.66-1.2l1.06-0.85l1.36-0.4l1.41,0.15l1.19,0.66l0.86,1.06l0.4,1.35l-0.16,1.41l-0.66,1.19
		l-1.06,0.84l-1.36,0.4l-1.41-0.15l-1.19-0.64l-0.86-1.06l-0.4-1.36L259.55,171.36z M265.73,170.97l-0.76-0.93l-1.06-0.59
		l-1.25-0.14l-1.2,0.35l-0.94,0.75l-0.59,1.06l-0.14,1.25l0.35,1.2l0.77,0.94l1.06,0.58l1.24,0.14l1.2-0.35l0.95-0.76l0.58-1.06
		l0.14-1.24L265.73,170.97 M264.59,174.26l-0.26,0.01l-0.27,0.03l-0.26,0.05l-0.69-1.02l-0.35-0.54l-0.14-0.19l-0.06-0.03
		l-0.03,0.03l0.01,0.14l0.05,0.48l0.06,0.51l0.06,0.44l0.04,0.27h-0.23l-0.24,0.02l-0.23,0.03l-0.23,0.04l-0.01-0.19l-0.02-0.41
		l-0.04-0.66l-0.07-0.95l-0.08-0.77l-0.06-0.52l-0.05-0.34l-0.04-0.23l0.4-0.02l0.38-0.03l0.34-0.04l0.48-0.05l0.88,0.2l0.37,0.69
		l-0.22,0.73l-0.65,0.41l1.44,1.89L264.59,174.26 M263.12,170.82l-0.44-0.15l-0.3,0.03l0.03,0.5l0.03,0.41l0.06,0.73l0.25-0.04
		l0.31-0.12l0.24-0.29l0.06-0.52L263.12,170.82"/>
</g>
</svg>
